<svg width="82" height="82" viewBox="0 0 82 82" fill="none" xmlns="http://www.w3.org/2000/svg">
<path d="M41.0003 47.8333H44.417C48.1753 47.8333 51.2503 44.7583 51.2503 40.9999V6.83325H20.5003C15.3753 6.83325 10.8995 9.66904 8.57617 13.8374" stroke="#171717" stroke-width="3" stroke-linecap="round" stroke-linejoin="round"/>
<path d="M6.83301 58.0833C6.83301 63.7549 11.4113 68.3333 17.083 68.3333H20.4997C20.4997 64.5749 23.5747 61.4999 27.333 61.4999C31.0913 61.4999 34.1663 64.5749 34.1663 68.3333H47.833C47.833 64.5749 50.908 61.4999 54.6663 61.4999C58.4247 61.4999 61.4997 64.5749 61.4997 68.3333H64.9163C70.588 68.3333 75.1663 63.7549 75.1663 58.0833V47.8333H64.9163C63.0372 47.8333 61.4997 46.2958 61.4997 44.4166V34.1666C61.4997 32.2874 63.0372 30.7499 64.9163 30.7499H69.3238L63.4814 20.5341C62.2514 18.4158 59.9964 17.0833 57.5364 17.0833H51.2497V40.9999C51.2497 44.7583 48.1747 47.8333 44.4163 47.8333H40.9997" stroke="#171717" stroke-width="3" stroke-linecap="round" stroke-linejoin="round"/>
<path d="M27.3333 75.1667C31.1073 75.1667 34.1667 72.1073 34.1667 68.3333C34.1667 64.5594 31.1073 61.5 27.3333 61.5C23.5594 61.5 20.5 64.5594 20.5 68.3333C20.5 72.1073 23.5594 75.1667 27.3333 75.1667Z" stroke="#171717" stroke-width="3" stroke-linecap="round" stroke-linejoin="round"/>
<path d="M54.6663 75.1667C58.4403 75.1667 61.4997 72.1073 61.4997 68.3333C61.4997 64.5594 58.4403 61.5 54.6663 61.5C50.8924 61.5 47.833 64.5594 47.833 68.3333C47.833 72.1073 50.8924 75.1667 54.6663 75.1667Z" stroke="#171717" stroke-width="3" stroke-linecap="round" stroke-linejoin="round"/>
<path d="M75.1667 41V47.8333H64.9167C63.0375 47.8333 61.5 46.2958 61.5 44.4167V34.1667C61.5 32.2875 63.0375 30.75 64.9167 30.75H69.3241L75.1667 41Z" stroke="#171717" stroke-width="3" stroke-linecap="round" stroke-linejoin="round"/>
<path d="M6.83301 27.3333H27.333" stroke="#171717" stroke-width="3" stroke-linecap="round" stroke-linejoin="round"/>
<path d="M6.83301 37.5833H20.4997" stroke="#171717" stroke-width="3" stroke-linecap="round" stroke-linejoin="round"/>
<path d="M6.83301 47.8333H13.6663" stroke="#171717" stroke-width="3" stroke-linecap="round" stroke-linejoin="round"/>
</svg>
