<svg width="82" height="82" viewBox="0 0 82 82" fill="none" xmlns="http://www.w3.org/2000/svg">
<path d="M41.0003 40.9999C50.4352 40.9999 58.0837 33.3514 58.0837 23.9166C58.0837 14.4817 50.4352 6.83325 41.0003 6.83325C31.5655 6.83325 23.917 14.4817 23.917 23.9166C23.917 33.3514 31.5655 40.9999 41.0003 40.9999Z" stroke="#171717" stroke-width="3" stroke-linecap="round" stroke-linejoin="round"/>
<path d="M65.6345 53.7784L53.5393 65.8735C53.061 66.3519 52.6169 67.2401 52.5144 67.8893L51.8652 72.5017C51.626 74.1758 52.7877 75.3375 54.4619 75.0984L59.0743 74.4492C59.7235 74.3467 60.6461 73.9026 61.0902 73.4242L73.1852 61.3293C75.2693 59.2451 76.2602 56.8192 73.1852 53.7442C70.1443 50.7034 67.7186 51.6942 65.6345 53.7784Z" stroke="#171717" stroke-width="3" stroke-miterlimit="10" stroke-linecap="round" stroke-linejoin="round"/>
<path d="M63.8916 55.5208C64.9166 59.2108 67.7865 62.0807 71.4765 63.1057" stroke="#171717" stroke-width="3" stroke-miterlimit="10" stroke-linecap="round" stroke-linejoin="round"/>
<path d="M11.6504 75.1667C11.6504 61.9442 24.8047 51.25 40.9996 51.25C44.553 51.25 47.9695 51.7625 51.147 52.7191" stroke="#171717" stroke-width="3" stroke-linecap="round" stroke-linejoin="round"/>
</svg>
