<svg width="82" height="82" viewBox="0 0 82 82" fill="none" xmlns="http://www.w3.org/2000/svg">
<path d="M35.8403 7.61933L18.7912 14.0085C14.862 15.4777 11.6504 20.1243 11.6504 24.3268V49.7127C11.6504 53.7443 14.3154 59.0402 17.5613 61.466L32.2529 72.4335C37.0704 76.0552 44.997 76.0552 49.8145 72.4335L64.5062 61.466C67.7521 59.0402 70.417 53.7443 70.417 49.7127V24.3268C70.417 20.1243 67.2053 15.4777 63.2762 14.0085L46.227 7.61933C43.3229 6.56016 38.6762 6.56016 35.8403 7.61933Z" stroke="#171717" stroke-width="3" stroke-linecap="round" stroke-linejoin="round"/>
<path d="M40.9997 52.9583C48.5476 52.9583 54.6663 46.8396 54.6663 39.2917C54.6663 31.7438 48.5476 25.625 40.9997 25.625C33.4518 25.625 27.333 31.7438 27.333 39.2917C27.333 46.8396 33.4518 52.9583 40.9997 52.9583Z" stroke="#171717" stroke-width="3" stroke-miterlimit="10" stroke-linecap="round" stroke-linejoin="round"/>
<path d="M41.8538 35.0208V38.1983C41.8538 39.3941 41.2389 40.5216 40.1797 41.1366L37.583 42.7083" stroke="#171717" stroke-width="3" stroke-miterlimit="10" stroke-linecap="round" stroke-linejoin="round"/>
</svg>
