<svg width="68" height="68" viewBox="0 0 68 68" fill="none" xmlns="http://www.w3.org/2000/svg">
<path d="M61.625 10.625H60.5625V8.5C60.5625 7.37283 60.1147 6.29183 59.3177 5.4948C58.5207 4.69777 57.4397 4.25 56.3125 4.25C55.1853 4.25 54.1043 4.69777 53.3073 5.4948C52.5103 6.29183 52.0625 7.37283 52.0625 8.5V10.625H45.6875V8.5C45.6875 7.37283 45.2397 6.29183 44.4427 5.4948C43.6457 4.69777 42.5647 4.25 41.4375 4.25C40.3103 4.25 39.2293 4.69777 38.4323 5.4948C37.6353 6.29183 37.1875 7.37283 37.1875 8.5V10.625H30.8125V8.5C30.8125 7.37283 30.3647 6.29183 29.5677 5.4948C28.7707 4.69777 27.6897 4.25 26.5625 4.25C25.4353 4.25 24.3543 4.69777 23.5573 5.4948C22.7603 6.29183 22.3125 7.37283 22.3125 8.5V10.625H15.9375V8.5C15.9375 7.37283 15.4897 6.29183 14.6927 5.4948C13.8957 4.69777 12.8147 4.25 11.6875 4.25C10.5603 4.25 9.47933 4.69777 8.6823 5.4948C7.88527 6.29183 7.4375 7.37283 7.4375 8.5V10.625H6.375C4.68476 10.6267 3.06424 11.2989 1.86906 12.4941C0.67388 13.6892 0.00168771 15.3098 0 17L0 57.375C0.00168771 59.0652 0.67388 60.6858 1.86906 61.8809C3.06424 63.0761 4.68476 63.7483 6.375 63.75H61.625C63.3152 63.7483 64.9358 63.0761 66.1309 61.8809C67.3261 60.6858 67.9983 59.0652 68 57.375V17C67.9983 15.3098 67.3261 13.6892 66.1309 12.4941C64.9358 11.2989 63.3152 10.6267 61.625 10.625ZM54.1875 8.5C54.1875 7.93641 54.4114 7.39591 54.8099 6.9974C55.2084 6.59888 55.7489 6.375 56.3125 6.375C56.8761 6.375 57.4166 6.59888 57.8151 6.9974C58.2136 7.39591 58.4375 7.93641 58.4375 8.5V14.875C58.4375 15.4386 58.2136 15.9791 57.8151 16.3776C57.4166 16.7761 56.8761 17 56.3125 17C55.7489 17 55.2084 16.7761 54.8099 16.3776C54.4114 15.9791 54.1875 15.4386 54.1875 14.875V8.5ZM39.3125 8.5C39.3125 7.93641 39.5364 7.39591 39.9349 6.9974C40.3334 6.59888 40.8739 6.375 41.4375 6.375C42.0011 6.375 42.5416 6.59888 42.9401 6.9974C43.3386 7.39591 43.5625 7.93641 43.5625 8.5V14.875C43.5625 15.4386 43.3386 15.9791 42.9401 16.3776C42.5416 16.7761 42.0011 17 41.4375 17C40.8739 17 40.3334 16.7761 39.9349 16.3776C39.5364 15.9791 39.3125 15.4386 39.3125 14.875V8.5ZM24.4375 8.5C24.4375 7.93641 24.6614 7.39591 25.0599 6.9974C25.4584 6.59888 25.9989 6.375 26.5625 6.375C27.1261 6.375 27.6666 6.59888 28.0651 6.9974C28.4636 7.39591 28.6875 7.93641 28.6875 8.5V14.875C28.6875 15.4386 28.4636 15.9791 28.0651 16.3776C27.6666 16.7761 27.1261 17 26.5625 17C25.9989 17 25.4584 16.7761 25.0599 16.3776C24.6614 15.9791 24.4375 15.4386 24.4375 14.875V8.5ZM9.5625 8.5C9.5625 7.93641 9.78638 7.39591 10.1849 6.9974C10.5834 6.59888 11.1239 6.375 11.6875 6.375C12.2511 6.375 12.7916 6.59888 13.1901 6.9974C13.5886 7.39591 13.8125 7.93641 13.8125 8.5V14.875C13.8125 15.4386 13.5886 15.9791 13.1901 16.3776C12.7916 16.7761 12.2511 17 11.6875 17C11.1239 17 10.5834 16.7761 10.1849 16.3776C9.78638 15.9791 9.5625 15.4386 9.5625 14.875V8.5ZM6.375 12.75H7.4375V14.875C7.4375 16.0022 7.88527 17.0832 8.6823 17.8802C9.47933 18.6772 10.5603 19.125 11.6875 19.125C12.8147 19.125 13.8957 18.6772 14.6927 17.8802C15.4897 17.0832 15.9375 16.0022 15.9375 14.875V12.75H22.3125V14.875C22.3125 16.0022 22.7603 17.0832 23.5573 17.8802C24.3543 18.6772 25.4353 19.125 26.5625 19.125C27.6897 19.125 28.7707 18.6772 29.5677 17.8802C30.3647 17.0832 30.8125 16.0022 30.8125 14.875V12.75H37.1875V14.875C37.1875 16.0022 37.6353 17.0832 38.4323 17.8802C39.2293 18.6772 40.3103 19.125 41.4375 19.125C42.5647 19.125 43.6457 18.6772 44.4427 17.8802C45.2397 17.0832 45.6875 16.0022 45.6875 14.875V12.75H52.0625V14.875C52.0625 16.0022 52.5103 17.0832 53.3073 17.8802C54.1043 18.6772 55.1853 19.125 56.3125 19.125C57.4397 19.125 58.5207 18.6772 59.3177 17.8802C60.1147 17.0832 60.5625 16.0022 60.5625 14.875V12.75H61.625C62.7522 12.75 63.8332 13.1978 64.6302 13.9948C65.4272 14.7918 65.875 15.8728 65.875 17V22.3125H2.125V17C2.125 15.8728 2.57277 14.7918 3.3698 13.9948C4.16683 13.1978 5.24783 12.75 6.375 12.75ZM61.625 61.625H6.375C5.24783 61.625 4.16683 61.1772 3.3698 60.3802C2.57277 59.5832 2.125 58.5022 2.125 57.375V24.4375H65.875V57.375C65.875 58.5022 65.4272 59.5832 64.6302 60.3802C63.8332 61.1772 62.7522 61.625 61.625 61.625Z" fill="#202023"/>
<path d="M49.9375 42.5H47.1899L48.5637 41.1262C48.7572 40.9258 48.8643 40.6574 48.8619 40.3788C48.8595 40.1002 48.7477 39.8337 48.5507 39.6368C48.3538 39.4398 48.0873 39.328 47.8087 39.3256C47.5301 39.3232 47.2617 39.4303 47.0613 39.6238L44.1851 42.5H36.5649L41.8774 37.1875H45.6875C45.9693 37.1875 46.2395 37.0756 46.4388 36.8763C46.6381 36.677 46.75 36.4068 46.75 36.125C46.75 35.8432 46.6381 35.573 46.4388 35.3737C46.2395 35.1744 45.9693 35.0625 45.6875 35.0625H44.0024L45.3762 33.6887C45.5697 33.4883 45.6768 33.2199 45.6744 32.9413C45.672 32.6627 45.5602 32.3963 45.3632 32.1993C45.1663 32.0023 44.8998 31.8905 44.6212 31.8881C44.3426 31.8857 44.0742 31.9928 43.8738 32.1863L42.5 33.5601V31.875C42.5 31.5932 42.3881 31.323 42.1888 31.1237C41.9895 30.9244 41.7193 30.8125 41.4375 30.8125C41.1557 30.8125 40.8855 30.9244 40.6862 31.1237C40.4869 31.323 40.375 31.5932 40.375 31.875V35.6851L35.0625 40.9976V33.3774L37.9387 30.5012C38.1322 30.3008 38.2393 30.0324 38.2369 29.7538C38.2345 29.4752 38.1227 29.2088 37.9257 29.0118C37.7288 28.8148 37.4623 28.703 37.1837 28.7006C36.9051 28.6982 36.6367 28.8053 36.4363 28.9988L35.0625 30.3726V27.625C35.0625 27.3432 34.9506 27.073 34.7513 26.8737C34.552 26.6744 34.2818 26.5625 34 26.5625C33.7182 26.5625 33.448 26.6744 33.2487 26.8737C33.0494 27.073 32.9375 27.3432 32.9375 27.625V30.3726L31.5637 28.9988C31.3633 28.8053 31.0949 28.6982 30.8163 28.7006C30.5377 28.703 30.2713 28.8148 30.0743 29.0118C29.8773 29.2088 29.7655 29.4752 29.7631 29.7538C29.7607 30.0324 29.8678 30.3008 30.0613 30.5012L32.9375 33.3774V40.9976L27.625 35.6851V31.875C27.625 31.5932 27.5131 31.323 27.3138 31.1237C27.1145 30.9244 26.8443 30.8125 26.5625 30.8125C26.2807 30.8125 26.0105 30.9244 25.8112 31.1237C25.6119 31.323 25.5 31.5932 25.5 31.875V33.5601L24.1262 32.1863C23.9258 31.9928 23.6574 31.8857 23.3788 31.8881C23.1002 31.8905 22.8338 32.0023 22.6368 32.1993C22.4398 32.3963 22.328 32.6627 22.3256 32.9413C22.3232 33.2199 22.4303 33.4883 22.6238 33.6887L23.9976 35.0625H22.3125C22.0307 35.0625 21.7605 35.1744 21.5612 35.3737C21.3619 35.573 21.25 35.8432 21.25 36.125C21.25 36.4068 21.3619 36.677 21.5612 36.8763C21.7605 37.0756 22.0307 37.1875 22.3125 37.1875H26.1226L31.4351 42.5H23.8149L20.9387 39.6238C20.7383 39.4303 20.4699 39.3232 20.1913 39.3256C19.9127 39.328 19.6463 39.4398 19.4493 39.6368C19.2523 39.8337 19.1405 40.1002 19.1381 40.3788C19.1357 40.6574 19.2428 40.9258 19.4363 41.1262L20.8101 42.5H18.0625C17.7807 42.5 17.5105 42.6119 17.3112 42.8112C17.1119 43.0105 17 43.2807 17 43.5625C17 43.8443 17.1119 44.1145 17.3112 44.3138C17.5105 44.5131 17.7807 44.625 18.0625 44.625H20.8101L19.4363 45.9988C19.2428 46.1992 19.1357 46.4676 19.1381 46.7462C19.1405 47.0248 19.2523 47.2913 19.4493 47.4882C19.6463 47.6852 19.9127 47.797 20.1913 47.7994C20.4699 47.8018 20.7383 47.6947 20.9387 47.5012L23.8149 44.625H31.4351L26.1226 49.9375H22.3125C22.0307 49.9375 21.7605 50.0494 21.5612 50.2487C21.3619 50.448 21.25 50.7182 21.25 51C21.25 51.2818 21.3619 51.552 21.5612 51.7513C21.7605 51.9506 22.0307 52.0625 22.3125 52.0625H23.9976L22.6238 53.4363C22.4303 53.6367 22.3232 53.9051 22.3256 54.1837C22.328 54.4623 22.4398 54.7288 22.6368 54.9257C22.8338 55.1227 23.1002 55.2345 23.3788 55.2369C23.6574 55.2393 23.9258 55.1322 24.1262 54.9387L25.5 53.5649V55.25C25.5 55.5318 25.6119 55.802 25.8112 56.0013C26.0105 56.2006 26.2807 56.3125 26.5625 56.3125C26.8443 56.3125 27.1145 56.2006 27.3138 56.0013C27.5131 55.802 27.625 55.5318 27.625 55.25V51.4399L32.9375 46.1274V53.7476L30.0613 56.6238C29.8678 56.8242 29.7607 57.0926 29.7631 57.3712C29.7655 57.6498 29.8773 57.9163 30.0743 58.1132C30.2713 58.3102 30.5377 58.422 30.8163 58.4244C31.0949 58.4268 31.3633 58.3197 31.5637 58.1262L32.9375 56.7524V59.5C32.9375 59.7818 33.0494 60.052 33.2487 60.2513C33.448 60.4506 33.7182 60.5625 34 60.5625C34.2818 60.5625 34.552 60.4506 34.7513 60.2513C34.9506 60.052 35.0625 59.7818 35.0625 59.5V56.7524L36.4363 58.1262C36.6367 58.3197 36.9051 58.4268 37.1837 58.4244C37.4623 58.422 37.7288 58.3102 37.9257 58.1132C38.1227 57.9163 38.2345 57.6498 38.2369 57.3712C38.2393 57.0926 38.1322 56.8242 37.9387 56.6238L35.0625 53.7476V46.1274L40.375 51.4399V55.25C40.375 55.5318 40.4869 55.802 40.6862 56.0013C40.8855 56.2006 41.1557 56.3125 41.4375 56.3125C41.7193 56.3125 41.9895 56.2006 42.1888 56.0013C42.3881 55.802 42.5 55.5318 42.5 55.25V53.5649L43.8738 54.9387C44.0742 55.1322 44.3426 55.2393 44.6212 55.2369C44.8998 55.2345 45.1663 55.1227 45.3632 54.9257C45.5602 54.7288 45.672 54.4623 45.6744 54.1837C45.6768 53.9051 45.5697 53.6367 45.3762 53.4363L44.0024 52.0625H45.6875C45.9693 52.0625 46.2395 51.9506 46.4388 51.7513C46.6381 51.552 46.75 51.2818 46.75 51C46.75 50.7182 46.6381 50.448 46.4388 50.2487C46.2395 50.0494 45.9693 49.9375 45.6875 49.9375H41.8774L36.5649 44.625H44.1851L47.0613 47.5012C47.2617 47.6947 47.5301 47.8018 47.8087 47.7994C48.0873 47.797 48.3538 47.6852 48.5507 47.4882C48.7477 47.2913 48.8595 47.0248 48.8619 46.7462C48.8643 46.4676 48.7572 46.1992 48.5637 45.9988L47.1899 44.625H49.9375C50.2193 44.625 50.4895 44.5131 50.6888 44.3138C50.8881 44.1145 51 43.8443 51 43.5625C51 43.2807 50.8881 43.0105 50.6888 42.8112C50.4895 42.6119 50.2193 42.5 49.9375 42.5Z" fill="#202023"/>
</svg>
