<svg width="52" height="52" viewBox="0 0 52 52" fill="none" xmlns="http://www.w3.org/2000/svg">
<rect width="52" height="52" fill="#689775"/>
<path d="M25.7109 3.4753C25.0402 3.87759 24.9191 4.26159 24.9191 5.99873V7.27872L23.6242 7.58044C22.9069 7.74501 21.994 7.98272 21.5934 8.11073C19.4043 8.80558 17.7461 10.0582 17.7461 11.0182C17.7461 12.1427 19.2645 13.0021 22.2921 13.5873L22.5902 13.6513V13.1301C22.5902 12.8376 22.6554 12.4719 22.7392 12.2981C22.9069 11.9599 23.5218 11.3839 24.0434 11.0821L24.3695 10.8901L24.3508 12.4719C24.3322 13.3313 24.3136 14.4376 24.2856 14.9221L24.2484 15.809L23.4006 16.1016C22.1617 16.5313 21.2953 16.9336 20.4103 17.5004C18.6404 18.6341 17.8299 19.905 18.2212 20.9199C18.3609 21.2947 18.9385 21.8433 19.4602 22.1084C19.9911 22.3736 21.3699 22.7393 22.2083 22.8307L22.7765 22.8947L22.6368 22.5656C22.4598 22.145 22.4598 21.4684 22.6275 21.1484C22.8324 20.7736 23.9875 19.7587 24.2111 19.7587C24.239 19.7587 24.267 20.865 24.267 22.2181V24.6776L23.6429 24.9336C20.6898 26.1678 18.9105 27.3747 18.3143 28.5541C17.8765 29.4044 17.9604 29.9621 18.6218 30.529C19.3018 31.105 20.6898 31.6078 22.1524 31.7816L22.6927 31.8456L22.5064 31.5438C22.1337 30.9496 22.3387 29.9804 22.9349 29.505C23.2423 29.2581 24.09 28.8101 24.2577 28.8101C24.3508 28.8101 24.3695 28.8833 24.3229 29.0936C24.2949 29.249 24.267 30.337 24.267 31.4981V33.6101L23.5311 33.9118C21.6214 34.6981 19.7955 36.2158 19.7955 37.0113C19.7955 37.6238 21.1929 37.6604 23.0746 37.0935C23.6801 36.9107 24.1925 36.7644 24.2111 36.7644C24.2297 36.7644 24.267 37.9713 24.2949 39.4341C24.3415 42.1587 24.4719 43.3564 24.975 45.8615C25.2917 47.4707 26.1394 50.2775 26.7822 51.8958C26.8847 52.1518 26.9219 52.0512 27.4436 50.2501C29.1018 44.4993 29.2974 43.3107 29.3626 38.3827L29.4092 34.9175L30.024 34.497C31.5238 33.4456 32.2784 32.8238 32.3343 32.5861C32.4368 32.2113 32.1107 32.0101 31.4027 32.0101C30.8531 32.0101 29.9402 32.129 29.5676 32.2387C29.3999 32.2936 29.3906 32.2113 29.3906 29.697V27.0913L31.0953 26.5336C34.1788 25.5187 34.775 25.1073 34.421 24.2021C34.3092 23.8913 33.7223 23.5256 33.0516 23.3427C32.651 23.233 32.12 23.1873 30.9463 23.1873H29.3906V20.7461V18.305L29.6048 18.2501C30.3687 18.0399 33.0236 17.1439 33.3869 16.9884C34.4955 16.4764 34.8402 16.0833 34.5887 15.5896C34.2253 14.849 32.4274 14.3736 30.3501 14.4833L29.3906 14.529V12.2707V10.0216L31.5611 9.52787C32.7442 9.25358 33.8807 8.96101 34.067 8.86958C34.6911 8.55872 34.6073 8.10158 33.862 7.79073C32.8187 7.35187 31.1885 7.05015 29.8657 7.05015H28.9714V5.69701C28.962 4.21587 28.9062 3.9873 28.3658 3.5393C28.0864 3.31073 28.0212 3.30159 27.0337 3.30159C26.1767 3.30159 25.9438 3.32901 25.7109 3.4753Z" fill="white"/>
</svg>
