<svg width="30" height="30" viewBox="0 0 30 30" fill="none" xmlns="http://www.w3.org/2000/svg">
<g clip-path="url(#clip0_273_624)">
<path d="M30.0002 21.7C30.0002 21.6 30.0002 21.5 30.0002 21.4L16.7002 23.5C16.7002 23.2 16.7002 22.9 16.8002 22.4V22.3V22.2V22C16.9002 21.1 17.2002 20.2 17.7002 19.6C18.4002 18.8 19.4002 18.3 20.9002 18.3H21.6002L21.9002 17.6C22.6002 16 23.0002 14.4 23.0002 12.8C23.0002 11.6 22.7002 10.3 22.1002 9.20001L29.8002 10.4V9.80001V9.30001L21.3002 8.00001C21.1002 7.80001 20.9002 7.60001 20.8002 7.40001C19.3002 5.90001 17.2002 5.00001 14.9002 5.00001C13.2002 5.00001 11.7002 5.50001 10.4002 6.30001L0.400195 4.60001C0.300195 4.90001 0.200195 5.10001 0.200195 5.40001C0.200195 5.50001 0.200195 5.60001 0.200195 5.80001L9.3002 7.20001L9.1002 7.30001C7.6002 8.80001 6.8002 10.7 6.8002 12.8C6.8002 14.4 7.2002 16 7.9002 17.7L8.2002 18.4H9.0002C10.5002 18.4 11.5002 18.9 12.2002 19.7C12.7002 20.4 13.0002 21.2 13.1002 22.2V22.4V22.5C13.1002 23 13.2002 23.4 13.2002 23.7V23.8V23.9V24.2L0.600195 26C0.700195 26.1 0.700195 26.3 0.800195 26.4C0.900195 26.6 1.1002 26.8 1.2002 27.1L30.0002 22.6C30.0002 22.3 30.0002 22 30.0002 21.7ZM15.7002 22.1C15.6002 22.8 15.6002 23.3 15.6002 23.7L14.5002 23.9C14.5002 23.3 14.4002 22.7 14.4002 22.1C14.2002 20.2 13.2002 17.2 9.1002 17.2C8.4002 15.7 8.1002 14.2 8.1002 12.8C8.1002 9.30001 10.9002 6.10001 15.1002 6.10001C19.3002 6.10001 22.1002 9.30001 22.1002 12.8C22.1002 14.2 21.8002 15.6 21.1002 17.2C17.0002 17.2 16.0002 20.2 15.8002 22L15.7002 22.1Z" fill="white"/>
<path d="M13.3 23.8V23.7V23.6C13.3 23.3 13.3 22.9 13.2 22.4V22.3V22.1C13.1 21.2 12.8 20.3 12.3 19.6C11.6 18.8 10.6 18.3 9.1 18.3H8.2L7.9 17.6C7.1 16 6.8 14.4 6.8 12.7C6.8 10.7 7.6 8.69999 9.1 7.19999L9.2 7.09999L0.1 5.79999C0.1 6.29999 0 6.79999 0 7.39999C0 7.69999 0 7.99999 0 8.29999C0 8.49999 0 8.79999 0 8.99999V21.4V21.8C0 22.1 0 22.4 0 22.7C0 23.4 0.1 24 0.2 24.7C0.3 25.2 0.4 25.7 0.6 26.1L13.2 24.1L13.3 23.8Z" fill="#26A737"/>
<path d="M22.2998 9.20001C22.8998 10.3 23.1998 11.5 23.1998 12.8C23.1998 14.4 22.7998 16 22.0998 17.6L21.7998 18.3H20.9998C19.4998 18.3 18.3998 18.8 17.7998 19.6C17.2998 20.2 16.9998 21.1 16.8998 22V22.2V22.3V22.4C16.8998 22.8 16.7998 23.2 16.7998 23.5L29.9998 21.4C29.9998 21.3 29.9998 21.3 29.9998 21.2V10.4L22.2998 9.20001Z" fill="#26A737"/>
<path d="M14.9999 4.9C17.2999 4.9 19.3999 5.8 20.8999 7.3C21.0999 7.5 21.2999 7.7 21.3999 7.9L29.9999 9.3V8.5V8.2C29.9999 7.9 29.9999 7.6 29.9999 7.3C29.9999 6.6 29.8999 6 29.7999 5.3C29.6999 4.6 29.4999 4 29.1999 3.4C28.8999 3 28.4999 2.4 27.9999 2C27.4999 1.5 26.9999 1.1 26.3999 0.8C25.7999 0.5 25.1999 0.3 24.4999 0.2C23.7999 0.1 23.1999 0 22.4999 0C22.3999 0 22.1999 0 21.9999 0L8.6999 0H7.4999C6.7999 0 6.1999 0.1 5.4999 0.2C4.7999 0.3 4.1999 0.5 3.5999 0.8C2.3999 1.4 1.3999 2.4 0.799902 3.5C0.599902 3.9 0.499902 4.3 0.399902 4.6L10.4999 6.2C11.7999 5.4 13.2999 4.9 14.9999 4.9Z" fill="#FBB822"/>
<path d="M3.6002 29.2C4.2002 29.5 4.8002 29.7 5.5002 29.8C6.2002 29.9 6.8002 30 7.5002 30C7.7002 30 7.8002 30 8.0002 30H19.0002H20.7002H22.6002C23.3002 30 23.9002 29.9 24.6002 29.8C25.3002 29.7 25.9002 29.5 26.5002 29.2C27.1002 28.9 27.6002 28.5 28.1002 28C28.6002 27.5 29.0002 27 29.3002 26.4C29.6002 25.8 29.8002 25.2 29.9002 24.5C30.0002 23.9 30.1002 23.2 30.1002 22.5L1.2002 27.1C1.8002 28 2.6002 28.7 3.6002 29.2Z" fill="#89BD24"/>
<path d="M21 17.2C21.7 15.7 22 14.2 22 12.8C22 9.30001 19.2 6.10001 15 6.10001C10.8 6.10001 8 9.30001 8 12.8C8 14.2 8.3 15.6 9 17.2C13.2 17.2 14.2 20.2 14.3 22.1C14.4 22.7 14.4 23.3 14.4 23.9L15.5 23.7C15.5 23.3 15.5 22.8 15.6 22.1V22C15.9 20.1 16.9 17.2 21 17.2Z" fill="#376AB2"/>
</g>
<defs>
<clipPath id="clip0_273_624">
<rect width="30" height="30" fill="white"/>
</clipPath>
</defs>
</svg>
