<svg width="20" height="15" viewBox="0 0 20 15" fill="none" xmlns="http://www.w3.org/2000/svg">
<path d="M18.6207 11.8117H1.37931C0.62069 11.8117 0 12.4324 0 13.191C0 13.9496 0.62069 14.5703 1.37931 14.5703H18.6207C19.3793 14.5703 20 13.9496 20 13.191C20 12.4324 19.3793 11.8117 18.6207 11.8117Z" fill="#333"/>
<path d="M18.6207 0.0736547H1.37931C0.62069 0.0736547 0 0.694344 0 1.45297C0 2.21159 0.62069 2.83228 1.37931 2.83228H18.6207C19.3793 2.83228 20 2.21159 20 1.45297C20 0.694344 19.3793 0.0736547 18.6207 0.0736547Z" fill="#333"/>
<path d="M18.6207 5.9428H1.37931C0.62069 5.9428 0 6.56348 0 7.32211C0 8.08073 0.62069 8.70142 1.37931 8.70142H18.6207C19.3793 8.70142 20 8.08073 20 7.32211C20 6.56348 19.3793 5.9428 18.6207 5.9428Z" fill="#333"/>
</svg>
