<svg width="24" height="30" viewBox="0 0 24 30" fill="none" xmlns="http://www.w3.org/2000/svg">
<g clip-path="url(#clip0_273_619)">
<path d="M12.0004 18C15.3693 18 18.1004 15.2689 18.1004 11.9C18.1004 8.53105 15.3693 5.79999 12.0004 5.79999C8.63145 5.79999 5.90039 8.53105 5.90039 11.9C5.90039 15.2689 8.63145 18 12.0004 18Z" fill="white"/>
<path d="M24.0002 11.9C23.9002 15.7 22.5002 18.7 19.8002 21.1C18.3002 22.4 16.8002 23.7 15.3002 25C14.4002 25.8 13.7002 26.7 13.2002 27.8C13.0002 28.2 12.9002 28.7 12.8002 29.1C12.7002 29.8 12.2002 30.2 11.6002 29.9C11.3002 29.8 11.1002 29.5 11.0002 29.2C10.8002 27.6 9.90018 26.4 8.80018 25.3C7.50018 24 6.00017 22.8 4.60017 21.6C2.30017 19.7 0.700175 17.3 0.100175 14.3C-0.599825 10.3 0.300175 6.7 3.10018 3.7C5.70018 1.1 8.90018 -0.100004 12.5002 -4.26872e-06C17.9002 0.199996 22.4002 3.9 23.7002 9.1C23.8002 9.5 23.9002 10 23.9002 10.4C24.0002 11 24.0002 11.5 24.0002 11.9ZM7.80018 12C7.80018 14.3 9.70018 16.2 12.0002 16.2C14.4002 16.2 16.2002 14.3 16.2002 11.8C16.2002 9.5 14.2002 7.7 11.9002 7.7C9.60018 7.8 7.70018 9.7 7.80018 12Z" fill="#E63312"/>
</g>
<defs>
<clipPath id="clip0_273_619">
<rect width="24" height="30" fill="white"/>
</clipPath>
</defs>
</svg>
