<svg width="126" height="56" viewBox="0 0 126 56" fill="none" xmlns="http://www.w3.org/2000/svg">
<rect x="0.5" y="0.5" width="125" height="55" rx="4.5" fill="white" stroke="#D9D9D9"/>
<path d="M7 18H26.9329V38H7V18Z" fill="#689775"/>
<path d="M16.8556 19.3367C16.5985 19.4914 16.5521 19.6391 16.5521 20.3072V20.7995L16.0557 20.9156C15.7808 20.9788 15.4308 21.0703 15.2773 21.1195C14.4381 21.3868 13.8025 21.8685 13.8025 22.2377C13.8025 22.6703 14.3846 23.0008 15.5451 23.2259L15.6594 23.2505V23.0501C15.6594 22.9375 15.6844 22.7969 15.7165 22.7301C15.7808 22.5999 16.0165 22.3784 16.2164 22.2624L16.3414 22.1885L16.3343 22.7969C16.3271 23.1274 16.32 23.5529 16.3093 23.7393L16.295 24.0804L15.97 24.1929C15.4951 24.3582 15.163 24.5129 14.8238 24.7309C14.1453 25.167 13.8346 25.6558 13.9846 26.0461C14.0382 26.1903 14.2596 26.4013 14.4595 26.5032C14.6631 26.6052 15.1916 26.7459 15.513 26.781L15.7308 26.8057L15.6772 26.6791C15.6094 26.5173 15.6094 26.2571 15.6736 26.134C15.7522 25.9898 16.195 25.5995 16.2807 25.5995C16.2914 25.5995 16.3021 26.025 16.3021 26.5454V27.4914L16.0629 27.5898C14.9309 28.0646 14.2489 28.5287 14.0203 28.9824C13.8525 29.3094 13.8846 29.5239 14.1382 29.7419C14.3988 29.9635 14.9309 30.1569 15.4915 30.2237L15.6986 30.2483L15.6272 30.1322C15.4844 29.9037 15.563 29.5309 15.7915 29.3481C15.9093 29.2531 16.2343 29.0808 16.2986 29.0808C16.3343 29.0808 16.3414 29.109 16.3236 29.1898C16.3128 29.2496 16.3021 29.6681 16.3021 30.1147V30.927L16.02 31.043C15.288 31.3454 14.5881 31.9292 14.5881 32.2351C14.5881 32.4707 15.1237 32.4848 15.8451 32.2667C16.0772 32.1964 16.2736 32.1402 16.2807 32.1402C16.2878 32.1402 16.3021 32.6043 16.3128 33.167C16.3307 34.2149 16.3807 34.6755 16.5735 35.6391C16.6949 36.258 17.0199 37.3375 17.2663 37.9599C17.3055 38.0584 17.3198 38.0197 17.5198 37.327C18.1554 35.1151 18.2304 34.658 18.2554 32.7626L18.2733 31.4298L18.5089 31.2681C19.0839 30.8637 19.3731 30.6246 19.3945 30.5331C19.4338 30.3889 19.3088 30.3116 19.0374 30.3116C18.8268 30.3116 18.4768 30.3573 18.334 30.3995C18.2697 30.4206 18.2661 30.3889 18.2661 29.4219V28.4197L18.9196 28.2052C20.1016 27.8149 20.3301 27.6566 20.1944 27.3085C20.1516 27.189 19.9266 27.0483 19.6695 26.978C19.5159 26.9358 19.3124 26.9182 18.8625 26.9182H18.2661V25.0404L18.3483 25.0193C18.6411 24.9384 19.6588 24.5938 19.798 24.534C20.223 24.3371 20.3551 24.1859 20.2587 23.996C20.1194 23.7112 19.4302 23.5283 18.6339 23.5705L18.2661 23.5881V21.8545L19.0981 21.6646C19.5516 21.5591 19.9873 21.4465 20.0587 21.4114C20.298 21.2918 20.2658 21.116 19.9801 20.9964C19.5802 20.8276 18.9553 20.7116 18.4482 20.7116H18.1054V20.1912C18.1019 19.6215 18.0804 19.5336 17.8733 19.3613C17.7662 19.2734 17.7412 19.2698 17.3627 19.2698C17.0342 19.2698 16.9449 19.2804 16.8556 19.3367Z" fill="white"/>
<path d="M36.988 30.4708C35.2718 30.4708 34.0075 30.1051 33.195 29.3737C32.3825 28.6422 31.9763 27.5984 31.9763 26.2422C31.9763 24.8784 32.3825 23.8003 33.195 23.008C34.0075 22.2156 35.2718 21.8194 36.988 21.8194C39.3875 21.8194 40.9935 22.6461 41.806 24.2994C41.1226 24.5356 40.3215 24.8899 39.4027 25.3622C39.1825 24.9356 38.8332 24.6194 38.3548 24.4137C37.884 24.208 37.4018 24.1051 36.9082 24.1051C36.1793 24.1051 35.6363 24.2994 35.2794 24.688C34.9225 25.0689 34.7441 25.5413 34.7441 26.1051C34.7441 26.7146 34.9339 27.2137 35.3136 27.6022C35.7009 27.9832 36.2894 28.1737 37.0791 28.1737C37.7093 28.1737 38.2105 28.0708 38.5826 27.8651C38.9547 27.6518 39.228 27.3165 39.4027 26.8594C40.0254 27.1946 40.8227 27.5718 41.7946 27.9908C41.415 28.9127 40.7809 29.5565 39.8925 29.9222C39.004 30.288 38.0359 30.4708 36.988 30.4708Z" fill="#E7C873"/>
<path d="M47.7444 27.2594C49.0429 27.2594 49.6922 27.6746 49.6922 28.5051C49.6922 29.0994 49.4644 29.5565 49.0088 29.8765C48.5607 30.1965 47.7482 30.3565 46.5712 30.3565H42.7213C42.7593 29.488 42.7783 28.448 42.7783 27.2365C42.7783 26.0251 42.7593 24.9851 42.7213 24.1165H45.0791V24.128H46.5599C47.2736 24.128 47.8318 24.1889 48.2342 24.3108C48.6443 24.4251 48.9328 24.5927 49.0999 24.8137C49.2669 25.0346 49.3505 25.3165 49.3505 25.6594C49.3505 26.4289 48.8151 26.9622 47.7444 27.2594ZM45.0791 25.6937V26.4937H45.9448C46.2941 26.4937 46.5409 26.4632 46.6851 26.4022C46.8294 26.3337 46.9016 26.2156 46.9016 26.048C46.9016 25.9184 46.8256 25.827 46.6738 25.7737C46.5295 25.7203 46.2865 25.6937 45.9448 25.6937H45.0791ZM45.9448 28.7794C46.3776 28.7794 46.6738 28.7489 46.8332 28.688C46.9927 28.6194 47.0724 28.5013 47.0724 28.3337C47.0724 28.1889 46.9889 28.0822 46.8218 28.0137C46.6548 27.9451 46.3624 27.9108 45.9448 27.9108H45.0791V28.7794H45.9448Z" fill="#E7C873"/>
<path d="M57.7865 28.4594C57.7865 28.7184 57.8169 28.9013 57.8777 29.008C57.9384 29.1146 58.0599 29.1908 58.2421 29.2365L58.1966 30.3108C57.9536 30.3489 57.741 30.3756 57.5587 30.3908C57.3841 30.4061 57.1487 30.4137 56.8525 30.4137C56.1995 30.4137 55.7667 30.2689 55.554 29.9794C55.3414 29.6822 55.2351 29.3051 55.2351 28.848V28.5622C55.0149 29.187 54.6922 29.6518 54.2669 29.9565C53.8493 30.2613 53.314 30.4137 52.6609 30.4137C51.9016 30.4137 51.3283 30.2613 50.941 29.9565C50.5613 29.6518 50.3715 29.1984 50.3715 28.5965C50.3715 28.1013 50.5347 27.7127 50.8613 27.4308C51.1878 27.1489 51.6928 26.9546 52.3762 26.848C51.7991 26.4365 51.222 26.0784 50.6449 25.7737C51.1005 25.1946 51.6206 24.7565 52.2053 24.4594C52.79 24.1546 53.5 24.0022 54.3353 24.0022C55.5047 24.0022 56.3703 24.2575 56.9323 24.768C57.5018 25.2708 57.7865 26.048 57.7865 27.0994V28.4594ZM54.5745 26.0137C54.1872 26.0137 53.8455 26.0784 53.5494 26.208C53.2532 26.3375 52.9874 26.5318 52.752 26.7908C53.2077 26.7375 53.7772 26.7108 54.4606 26.7108C54.7415 26.7108 54.939 26.6765 55.0529 26.608C55.1668 26.5394 55.2237 26.4518 55.2237 26.3451C55.2237 26.2537 55.1668 26.1775 55.0529 26.1165C54.939 26.048 54.7795 26.0137 54.5745 26.0137ZM53.3785 28.5508C53.8037 28.5508 54.1872 28.4708 54.5289 28.3108C54.8706 28.1432 55.106 27.9261 55.2351 27.6594V27.3622C55.0529 27.4537 54.8516 27.5261 54.6314 27.5794C54.4112 27.6251 54.1455 27.6708 53.8341 27.7165L53.4241 27.7851C52.9988 27.8689 52.7862 28.0137 52.7862 28.2194C52.7862 28.4403 52.9836 28.5508 53.3785 28.5508Z" fill="#E7C873"/>
<path d="M66.0582 24.1165C66.0203 25.2213 66.0013 26.2194 66.0013 27.1108C66.0013 27.987 66.0203 28.9851 66.0582 30.1051H63.7232L63.8485 26.1508L62.1058 30.1051H58.928C58.9735 29.0994 58.9963 28.1013 58.9963 27.1108C58.9963 26.1051 58.9735 25.107 58.928 24.1165H61.1718L61.0579 28.1737L62.8006 24.1165H66.0582ZM62.3792 23.8422C62.0223 23.8422 61.692 23.7622 61.3882 23.6022C61.0921 23.4422 60.8567 23.2137 60.6821 22.9165C60.5074 22.6194 60.4201 22.2727 60.4201 21.8765H61.5477C61.5477 22.1737 61.6236 22.3946 61.7755 22.5394C61.935 22.6765 62.1362 22.7451 62.3792 22.7451C62.6222 22.7451 62.8196 22.6765 62.9715 22.5394C63.131 22.3946 63.2107 22.1737 63.2107 21.8765H64.3383C64.3383 22.2727 64.251 22.6194 64.0763 22.9165C63.9017 23.2137 63.6625 23.4422 63.3588 23.6022C63.0626 23.7622 62.7361 23.8422 62.3792 23.8422Z" fill="#E7C873"/>
<path d="M77.62 22.0594L78.5084 30.3565H75.5583L75.3761 24.4365L74.2371 30.3565H71.2528L70.091 24.4822L69.9202 30.3565H66.9701L67.8585 22.0594H71.7312L72.7222 27.4651L73.5878 22.0594H77.62Z" fill="black"/>
<path d="M83.0847 30.4708C81.7862 30.4708 80.8294 30.1737 80.2143 29.5794C79.6069 28.9775 79.3031 28.1889 79.3031 27.2137C79.3031 26.2613 79.6069 25.488 80.2143 24.8937C80.8294 24.2994 81.7862 24.0022 83.0847 24.0022C83.9579 24.0022 84.6869 24.147 85.2716 24.4365C85.8639 24.7184 86.3005 25.1032 86.5815 25.5908C86.8624 26.0708 87.0029 26.6118 87.0029 27.2137C87.0029 28.1965 86.6764 28.9851 86.0234 29.5794C85.3779 30.1737 84.3984 30.4708 83.0847 30.4708ZM83.1302 28.528C83.6238 28.528 83.9921 28.4099 84.2351 28.1737C84.4781 27.9375 84.5996 27.6213 84.5996 27.2251C84.5996 26.8518 84.4781 26.547 84.2351 26.3108C83.9921 26.067 83.6238 25.9451 83.1302 25.9451C82.6367 25.9451 82.276 26.0632 82.0482 26.2994C81.8204 26.5356 81.7065 26.8442 81.7065 27.2251C81.7065 27.6213 81.8204 27.9375 82.0482 28.1737C82.276 28.4099 82.6367 28.528 83.1302 28.528Z" fill="black"/>
<path d="M94.9798 24.1165C94.9419 25.2746 94.9229 26.3146 94.9229 27.2365C94.9229 28.1584 94.9419 29.1984 94.9798 30.3565H92.5081V28.2765H90.2757V30.3565H87.804C87.8419 29.488 87.8609 28.448 87.8609 27.2365C87.8609 26.0251 87.8419 24.9851 87.804 24.1165H90.2757V26.1965H92.5081V24.1165H94.9798Z" fill="black"/>
<path d="M102.804 26.2651C101.665 26.2346 100.838 26.2156 100.321 26.208V30.3565H97.9067V26.208C97.3979 26.2156 96.574 26.2346 95.435 26.2651V24.1165H102.804V26.2651Z" fill="black"/>
<path d="M110.566 28.4594C110.566 28.7184 110.597 28.9013 110.658 29.008C110.718 29.1146 110.84 29.1908 111.022 29.2365L110.977 30.3108C110.734 30.3489 110.521 30.3756 110.339 30.3908C110.164 30.4061 109.929 30.4137 109.632 30.4137C108.979 30.4137 108.547 30.2689 108.334 29.9794C108.121 29.6822 108.015 29.3051 108.015 28.848V28.5622C107.795 29.187 107.472 29.6518 107.047 29.9565C106.629 30.2613 106.094 30.4137 105.441 30.4137C104.682 30.4137 104.108 30.2613 103.721 29.9565C103.341 29.6518 103.151 29.1984 103.151 28.5965C103.151 28.1013 103.315 27.7127 103.641 27.4308C103.968 27.1489 104.473 26.9546 105.156 26.848C104.579 26.4365 104.002 26.0784 103.425 25.7737C103.88 25.1946 104.401 24.7565 104.985 24.4594C105.57 24.1546 106.28 24.0022 107.115 24.0022C108.285 24.0022 109.15 24.2575 109.712 24.768C110.282 25.2708 110.566 26.048 110.566 27.0994V28.4594ZM107.354 26.0137C106.967 26.0137 106.625 26.0784 106.329 26.208C106.033 26.3375 105.767 26.5318 105.532 26.7908C105.988 26.7375 106.557 26.7108 107.241 26.7108C107.521 26.7108 107.719 26.6765 107.833 26.608C107.947 26.5394 108.004 26.4518 108.004 26.3451C108.004 26.2537 107.947 26.1775 107.833 26.1165C107.719 26.048 107.559 26.0137 107.354 26.0137ZM106.158 28.5508C106.584 28.5508 106.967 28.4708 107.309 28.3108C107.651 28.1432 107.886 27.9261 108.015 27.6594V27.3622C107.833 27.4537 107.632 27.5261 107.411 27.5794C107.191 27.6251 106.925 27.6708 106.614 27.7165L106.204 27.7851C105.779 27.8689 105.566 28.0137 105.566 28.2194C105.566 28.4403 105.764 28.5508 106.158 28.5508Z" fill="black"/>
<path d="M118.166 26.9508C118.364 27.0651 118.538 27.2061 118.69 27.3737C118.948 27.648 119.146 27.9527 119.282 28.288C119.419 28.6156 119.556 29.0308 119.692 29.5337C119.791 29.8994 119.875 30.1737 119.943 30.3565H117.745C117.714 30.2499 117.676 30.0746 117.631 29.8308C117.585 29.5565 117.54 29.3356 117.494 29.168C117.449 29.0003 117.38 28.8518 117.289 28.7222C117.168 28.5394 117.035 28.3946 116.89 28.288C116.746 28.1737 116.579 28.0899 116.389 28.0365C116.389 28.547 116.404 29.3203 116.435 30.3565H114.738C114.768 29.3356 114.783 28.5699 114.783 28.0594C114.616 28.1127 114.468 28.1965 114.339 28.3108C114.21 28.4175 114.085 28.5546 113.963 28.7222C113.872 28.8518 113.804 29.0003 113.758 29.168C113.713 29.3356 113.667 29.5565 113.621 29.8308C113.576 30.0746 113.538 30.2499 113.508 30.3565H111.309C111.378 30.1737 111.461 29.8994 111.56 29.5337C111.697 29.0308 111.833 28.6156 111.97 28.288C112.107 27.9527 112.304 27.648 112.562 27.3737C112.714 27.2061 112.889 27.0651 113.086 26.9508L111.252 24.1165H113.542C113.861 24.848 114.275 25.5832 114.783 26.3222C114.768 25.3318 114.753 24.5965 114.738 24.1165H116.435C116.404 25.1222 116.389 25.8765 116.389 26.3794L116.423 26.3908C116.94 25.6518 117.369 24.8937 117.711 24.1165H120L118.166 26.9508Z" fill="black"/>
<path d="M32.9169 35.5885V33.1059H34.8117V35.5885H34.6316V33.273H33.0988V35.5885H32.9169Z" fill="black"/>
<path d="M35.3912 35.5885V33.1059H36.195C36.4737 33.1059 36.6828 33.1741 36.8221 33.3105C36.9626 33.4469 37.0328 33.6248 37.0328 33.8442C37.0328 34.0613 36.9626 34.2386 36.8221 34.3762C36.6828 34.5126 36.4737 34.5808 36.195 34.5808H35.5731V35.5885H35.3912ZM35.5731 34.412H36.195C36.4375 34.412 36.6074 34.358 36.7049 34.25C36.8023 34.142 36.851 34.0068 36.851 33.8442C36.851 33.6805 36.8023 33.5447 36.7049 33.4367C36.6074 33.3287 36.4375 33.2747 36.195 33.2747H35.5731V34.412Z" fill="black"/>
<path d="M37.3132 34.3932V34.3012C37.3132 33.9067 37.4124 33.6004 37.6106 33.3821C37.81 33.1639 38.0666 33.0547 38.3805 33.0547C38.6931 33.0547 38.9486 33.1639 39.1469 33.3821C39.3463 33.6004 39.446 33.9067 39.446 34.3012V34.3932C39.446 34.7877 39.3463 35.094 39.1469 35.3123C38.9486 35.5306 38.6931 35.6397 38.3805 35.6397C38.0678 35.6397 37.8117 35.5306 37.6123 35.3123C37.4129 35.094 37.3132 34.7877 37.3132 34.3932ZM37.4985 34.3932C37.4985 34.7445 37.5795 35.0116 37.7415 35.1946C37.9035 35.3765 38.1165 35.4675 38.3805 35.4675C38.6433 35.4675 38.8557 35.3765 39.0177 35.1946C39.1809 35.0116 39.2624 34.7445 39.2624 34.3932V34.3012C39.2624 33.9499 39.1809 33.6833 39.0177 33.5015C38.8557 33.3185 38.6433 33.2269 38.3805 33.2269C38.1165 33.2269 37.9035 33.3185 37.7415 33.5015C37.5795 33.6833 37.4985 33.9499 37.4985 34.3012V34.3932Z" fill="black"/>
<path d="M42.0053 36.083V35.5885H39.8504V36.083H39.6873V35.4214H42.1684V36.083H42.0053ZM40.1988 33.1059H41.8217V35.5885H41.6399V33.273H40.3603L40.294 34.6303C40.2838 34.8405 40.2645 35.0139 40.2362 35.1503C40.209 35.2856 40.1694 35.4044 40.1172 35.5067H39.9099C39.9892 35.3976 40.0419 35.2736 40.068 35.135C40.094 34.9951 40.1127 34.8195 40.124 34.6081L40.1988 33.1059Z" fill="black"/>
<path d="M42.2347 35.5885L43.2373 33.0905H43.4769L44.4796 35.5885H44.2756L43.4735 33.5424C43.4509 33.4867 43.4299 33.4344 43.4107 33.3855C43.3914 33.3355 43.3738 33.2855 43.358 33.2355H43.3376C43.3217 33.2855 43.3042 33.3355 43.2849 33.3855C43.2668 33.4344 43.2458 33.4867 43.222 33.5424L42.4199 35.5885H42.2347ZM42.6 34.8928L42.668 34.7257L44.0343 34.7223L44.104 34.8911L42.6 34.8928Z" fill="black"/>
<path d="M45.9716 35.5885V33.1059H46.1535V35.5885H45.9716ZM47.4331 35.5885L46.4849 34.3131L46.6769 34.2722L47.6608 35.5885H47.4331ZM46.0617 34.2244H46.5562L47.3396 33.1059H47.547L46.631 34.3915H46.0617V34.2244ZM44.4711 35.5885L45.4533 34.2722L45.6386 34.3131L44.6903 35.5885H44.4711ZM46.0617 34.2244V34.3915H45.4873L44.5713 33.1059H44.7838L45.5689 34.2244H46.0617Z" fill="black"/>
<path d="M47.6489 35.5885L48.6516 33.0905H48.8912L49.8938 35.5885H49.6899L48.8878 33.5424C48.8651 33.4867 48.8442 33.4344 48.8249 33.3855C48.8057 33.3355 48.7881 33.2855 48.7722 33.2355H48.7518C48.736 33.2855 48.7184 33.3355 48.6992 33.3855C48.681 33.4344 48.6601 33.4867 48.6363 33.5424L47.8342 35.5885H47.6489ZM48.0143 34.8928L48.0823 34.7257L49.4486 34.7223L49.5183 34.8911L48.0143 34.8928Z" fill="black"/>
<path d="M52.9612 35.5885H52.7794V33.5526C52.7794 33.5185 52.7805 33.4793 52.7828 33.435C52.7851 33.3895 52.789 33.3486 52.7947 33.3122H52.7794C52.7669 33.3395 52.7494 33.3719 52.7267 33.4094C52.7041 33.4469 52.6808 33.4833 52.657 33.5185L51.2516 35.5885H51.0392V33.1059H51.221V35.1878C51.221 35.2219 51.2199 35.2543 51.2177 35.285C51.2165 35.3157 51.2148 35.3481 51.2126 35.3822H51.2261C51.2443 35.347 51.2624 35.3129 51.2805 35.2799C51.2987 35.2458 51.3202 35.2106 51.3451 35.1742L52.7488 33.1059H52.9612V35.5885Z" fill="black"/>
<path d="M54.3904 35.5885V33.1059H54.6062L55.5562 35.1657C55.5721 35.1998 55.5907 35.2458 55.6123 35.3038C55.6338 35.3617 55.6468 35.4061 55.6514 35.4368H55.6684C55.6752 35.4027 55.6887 35.3578 55.7091 35.3021C55.7295 35.2452 55.7477 35.1998 55.7635 35.1657L56.7186 33.1059H56.9446V35.5885H56.7645V33.5492C56.7645 33.5151 56.765 33.477 56.7662 33.435C56.7684 33.3918 56.7718 33.3531 56.7764 33.319H56.7611C56.752 33.3531 56.7395 33.3918 56.7237 33.435C56.7089 33.477 56.6937 33.5151 56.6778 33.5492L55.7465 35.5885H55.5732L54.6402 33.5492C54.6232 33.5151 54.6068 33.477 54.5909 33.435C54.5751 33.3918 54.5632 33.3531 54.5553 33.319H54.5366C54.5411 33.3531 54.5451 33.3918 54.5485 33.435C54.553 33.477 54.5553 33.5151 54.5553 33.5492V35.5885H54.3904Z" fill="black"/>
<path d="M57.4306 34.3932V34.3012C57.4306 33.9067 57.5298 33.6004 57.728 33.3821C57.9274 33.1639 58.184 33.0547 58.4978 33.0547C58.8105 33.0547 59.066 33.1639 59.2643 33.3821C59.4637 33.6004 59.5634 33.9067 59.5634 34.3012V34.3932C59.5634 34.7877 59.4637 35.094 59.2643 35.3123C59.066 35.5306 58.8105 35.6397 58.4978 35.6397C58.1852 35.6397 57.9291 35.5306 57.7297 35.3123C57.5303 35.094 57.4306 34.7877 57.4306 34.3932ZM57.6159 34.3932C57.6159 34.7445 57.6969 35.0116 57.8589 35.1946C58.0209 35.3765 58.2339 35.4675 58.4978 35.4675C58.7607 35.4675 58.9731 35.3765 59.1351 35.1946C59.2982 35.0116 59.3798 34.7445 59.3798 34.3932V34.3012C59.3798 33.9499 59.2982 33.6833 59.1351 33.5015C58.9731 33.3185 58.7607 33.2269 58.4978 33.2269C58.2339 33.2269 58.0209 33.3185 57.8589 33.5015C57.6969 33.6833 57.6159 33.9499 57.6159 34.3012V34.3932Z" fill="black"/>
<path d="M60.0494 35.5885V33.1059H60.2312V34.2244H61.7811V33.1059H61.9612V35.5885H61.7811V34.3915H60.2312V35.5885H60.0494Z" fill="black"/>
<path d="M62.2926 33.2747V33.1059H64.2605V33.2747H63.3683V35.5885H63.1864V33.2747H62.2926Z" fill="black"/>
<path d="M64.3063 35.5885L65.309 33.0905H65.5486L66.5512 35.5885H66.3473L65.5452 33.5424C65.5225 33.4867 65.5016 33.4344 65.4823 33.3855C65.4631 33.3355 65.4455 33.2855 65.4296 33.2355H65.4093C65.3934 33.2855 65.3758 33.3355 65.3566 33.3855C65.3384 33.4344 65.3175 33.4867 65.2937 33.5424L64.4916 35.5885H64.3063ZM64.6717 34.8928L64.7397 34.7257L66.106 34.7223L66.1757 34.8911L64.6717 34.8928Z" fill="black"/>
<path d="M68.0433 35.5885V33.1059H68.2251V35.5885H68.0433ZM69.5048 35.5885L68.5565 34.3131L68.7486 34.2722L69.7325 35.5885H69.5048ZM68.1334 34.2244H68.6279L69.4113 33.1059H69.6186L68.7027 34.3915H68.1334V34.2244ZM66.5427 35.5885L67.525 34.2722L67.7102 34.3131L66.762 35.5885H66.5427ZM68.1334 34.2244V34.3915H67.559L66.643 33.1059H66.8554L67.6406 34.2244H68.1334Z" fill="black"/>
<path d="M70.8541 35.5885V33.1059H71.6596C71.9077 33.1059 72.1009 33.1565 72.2391 33.2576C72.3785 33.3588 72.4481 33.5185 72.4481 33.7368C72.4481 33.88 72.4119 33.9982 72.3394 34.0914C72.268 34.1847 72.1779 34.2477 72.0692 34.2807V34.2875C72.204 34.3216 72.3133 34.391 72.3971 34.4955C72.4821 34.6001 72.5246 34.7365 72.5246 34.9048C72.5246 35.123 72.4515 35.2918 72.3054 35.4112C72.1604 35.5294 71.9655 35.5885 71.7208 35.5885H70.8541ZM71.0359 35.4248H71.7208C71.9349 35.4248 72.0918 35.3777 72.1915 35.2833C72.2912 35.189 72.3411 35.0611 72.3411 34.8997C72.3411 34.7394 72.2912 34.6121 72.1915 34.5177C72.0918 34.4234 71.9349 34.3762 71.7208 34.3762H71.0359V35.4248ZM71.0359 34.2159H71.6596C71.8749 34.2159 72.0295 34.1744 72.1235 34.0914C72.2187 34.0073 72.2663 33.8908 72.2663 33.7419C72.2663 33.5896 72.2187 33.4731 72.1235 33.3923C72.0295 33.3105 71.8749 33.2696 71.6596 33.2696H71.0359V34.2159Z" fill="black"/>
<path d="M74.9071 35.5885H74.7253V33.5526C74.7253 33.5185 74.7264 33.4793 74.7287 33.435C74.731 33.3895 74.7349 33.3486 74.7406 33.3122H74.7253C74.7128 33.3395 74.6953 33.3719 74.6726 33.4094C74.65 33.4469 74.6267 33.4833 74.6029 33.5185L73.1976 35.5885H72.9851V33.1059H73.167V35.1878C73.167 35.2219 73.1658 35.2543 73.1636 35.285C73.1624 35.3157 73.1607 35.3481 73.1585 35.3822H73.1721C73.1902 35.347 73.2083 35.3129 73.2264 35.2799C73.2446 35.2458 73.2661 35.2106 73.291 35.1742L74.6947 33.1059H74.9071V35.5885Z" fill="black"/>
<path d="M75.4866 35.5885V33.1059H75.6685V34.2244H77.2183V33.1059H77.3984V35.5885H77.2183V34.3915H75.6685V35.5885H75.4866Z" fill="black"/>
<path d="M77.7298 33.2747V33.1059H79.6977V33.2747H78.8055V35.5885H78.6237V33.2747H77.7298Z" fill="black"/>
<path d="M79.9339 34.3932V34.3012C79.9339 33.9067 80.0331 33.6004 80.2313 33.3821C80.4307 33.1639 80.6873 33.0547 81.0012 33.0547C81.3138 33.0547 81.5693 33.1639 81.7676 33.3821C81.967 33.6004 82.0667 33.9067 82.0667 34.3012V34.3932C82.0667 34.7877 81.967 35.094 81.7676 35.3123C81.5693 35.5306 81.3138 35.6397 81.0012 35.6397C80.6885 35.6397 80.4324 35.5306 80.233 35.3123C80.0336 35.094 79.9339 34.7877 79.9339 34.3932ZM80.1192 34.3932C80.1192 34.7445 80.2002 35.0116 80.3622 35.1946C80.5242 35.3765 80.7372 35.4675 81.0012 35.4675C81.264 35.4675 81.4764 35.3765 81.6384 35.1946C81.8016 35.0116 81.8831 34.7445 81.8831 34.3932V34.3012C81.8831 33.9499 81.8016 33.6833 81.6384 33.5015C81.4764 33.3185 81.264 33.2269 81.0012 33.2269C80.7372 33.2269 80.5242 33.3185 80.3622 33.5015C80.2002 33.6833 80.1192 33.9499 80.1192 34.3012V34.3932Z" fill="black"/>
<path d="M82.5527 35.5885V33.1059H83.3582C83.6063 33.1059 83.7995 33.1565 83.9377 33.2576C84.077 33.3588 84.1467 33.5185 84.1467 33.7368C84.1467 33.88 84.1105 33.9982 84.038 34.0914C83.9666 34.1847 83.8765 34.2477 83.7678 34.2807V34.2875C83.9026 34.3216 84.0119 34.391 84.0957 34.4955C84.1807 34.6001 84.2232 34.7365 84.2232 34.9048C84.2232 35.123 84.1501 35.2918 84.004 35.4112C83.859 35.5294 83.6641 35.5885 83.4194 35.5885H82.5527ZM82.7345 35.4248H83.4194C83.6335 35.4248 83.7904 35.3777 83.8901 35.2833C83.9898 35.189 84.0397 35.0611 84.0397 34.8997C84.0397 34.7394 83.9898 34.6121 83.8901 34.5177C83.7904 34.4234 83.6335 34.3762 83.4194 34.3762H82.7345V35.4248ZM82.7345 34.2159H83.3582C83.5735 34.2159 83.7281 34.1744 83.8221 34.0914C83.9173 34.0073 83.9649 33.8908 83.9649 33.7419C83.9649 33.5896 83.9173 33.4731 83.8221 33.3923C83.7281 33.3105 83.5735 33.2696 83.3582 33.2696H82.7345V34.2159Z" fill="black"/>
<path d="M84.6837 33.1059H84.8656V34.0966H85.4875C85.7662 34.0966 85.9753 34.1659 86.1146 34.3046C86.2551 34.4433 86.3253 34.6223 86.3253 34.8417C86.3253 35.0634 86.2551 35.2435 86.1146 35.3822C85.9753 35.5198 85.7662 35.5885 85.4875 35.5885H84.6837V33.1059ZM84.8656 34.2637V35.4214H85.4875C85.73 35.4214 85.8999 35.3669 85.9974 35.2577C86.0948 35.1475 86.1435 35.0088 86.1435 34.8417C86.1435 34.6769 86.0948 34.5393 85.9974 34.4291C85.8999 34.3188 85.73 34.2637 85.4875 34.2637H84.8656ZM86.7417 35.5885H86.9235V33.1059H86.7417V35.5885Z" fill="black"/>
<path d="M87.2549 35.5885L88.2864 34.2585H88.3102L89.1786 33.1059H89.3876L88.4122 34.3915L88.3867 34.3932L87.4622 35.5885H87.2549ZM87.3059 33.1059H87.5387L88.4105 34.2637H88.4207L89.442 35.5885H89.2075L88.2949 34.3967H88.2847L87.3059 33.1059Z" fill="black"/>
<path d="M90.5279 34.3932V34.3012C90.5279 33.9067 90.6271 33.6004 90.8253 33.3821C91.0247 33.1639 91.2745 33.0547 91.5748 33.0547C91.8704 33.0547 92.0953 33.1326 92.2494 33.2883C92.4046 33.4441 92.4958 33.6458 92.523 33.8936L92.5247 33.9107H92.3395L92.3378 33.8936C92.3185 33.714 92.2494 33.5583 92.1305 33.4264C92.0126 33.2934 91.8274 33.2269 91.5748 33.2269C91.3221 33.2269 91.1154 33.3202 90.9545 33.5066C90.7936 33.693 90.7132 33.9579 90.7132 34.3012V34.3932C90.7132 34.7411 90.7936 35.0071 90.9545 35.1912C91.1154 35.3754 91.3221 35.4675 91.5748 35.4675C91.8285 35.4675 92.0149 35.4015 92.1339 35.2697C92.2528 35.1367 92.3208 34.9804 92.3378 34.8008L92.3395 34.7837H92.5247L92.523 34.8008C92.4992 35.0486 92.4092 35.2503 92.2528 35.4061C92.0965 35.5618 91.8704 35.6397 91.5748 35.6397C91.2745 35.6397 91.0247 35.5311 90.8253 35.314C90.6271 35.0957 90.5279 34.7888 90.5279 34.3932Z" fill="black"/>
<path d="M92.8918 35.5885V33.1059H93.6973C93.9454 33.1059 94.1386 33.1565 94.2768 33.2576C94.4161 33.3588 94.4858 33.5185 94.4858 33.7368C94.4858 33.88 94.4496 33.9982 94.377 34.0914C94.3057 34.1847 94.2156 34.2477 94.1068 34.2807V34.2875C94.2417 34.3216 94.351 34.391 94.4348 34.4955C94.5198 34.6001 94.5623 34.7365 94.5623 34.9048C94.5623 35.123 94.4892 35.2918 94.3431 35.4112C94.198 35.5294 94.0032 35.5885 93.7585 35.5885H92.8918ZM93.0736 35.4248H93.7585C93.9726 35.4248 94.1295 35.3777 94.2292 35.2833C94.3289 35.189 94.3787 35.0611 94.3787 34.8997C94.3787 34.7394 94.3289 34.6121 94.2292 34.5177C94.1295 34.4234 93.9726 34.3762 93.7585 34.3762H93.0736V35.4248ZM93.0736 34.2159H93.6973C93.9125 34.2159 94.0672 34.1744 94.1612 34.0914C94.2564 34.0073 94.304 33.8908 94.304 33.7419C94.304 33.5896 94.2564 33.4731 94.1612 33.3923C94.0672 33.3105 93.9125 33.2696 93.6973 33.2696H93.0736V34.2159Z" fill="black"/>
<path d="M94.739 35.5885L95.7417 33.0905H95.9813L96.9839 35.5885H96.78L95.9779 33.5424C95.9552 33.4867 95.9343 33.4344 95.915 33.3855C95.8957 33.3355 95.8782 33.2855 95.8623 33.2355H95.8419C95.8261 33.2855 95.8085 33.3355 95.7892 33.3855C95.7711 33.4344 95.7502 33.4867 95.7264 33.5424L94.9243 35.5885H94.739ZM95.1044 34.8928L95.1724 34.7257L96.5387 34.7223L96.6083 34.8911L95.1044 34.8928Z" fill="black"/>
<path d="M99.2016 35.5885H99.0198V33.5526C99.0198 33.5185 99.0209 33.4793 99.0232 33.435C99.0254 33.3895 99.0294 33.3486 99.0351 33.3122H99.0198C99.0073 33.3395 98.9898 33.3719 98.9671 33.4094C98.9444 33.4469 98.9212 33.4833 98.8974 33.5185L97.492 35.5885H97.2796V33.1059H97.4614V35.1878C97.4614 35.2219 97.4603 35.2543 97.458 35.285C97.4569 35.3157 97.4552 35.3481 97.4529 35.3822H97.4665C97.4847 35.347 97.5028 35.3129 97.5209 35.2799C97.539 35.2458 97.5606 35.2106 97.5855 35.1742L98.9892 33.1059H99.2016V35.5885ZM98.2415 32.6285C98.3729 32.6285 98.4828 32.5966 98.5711 32.533C98.6606 32.4693 98.7298 32.367 98.7785 32.226L98.9297 32.2977C98.8776 32.4409 98.7921 32.5568 98.6731 32.6455C98.5553 32.733 98.4114 32.7768 98.2415 32.7768C98.0715 32.7768 97.9265 32.7319 97.8064 32.6421C97.6875 32.5512 97.6031 32.4363 97.5532 32.2977L97.7045 32.226C97.7509 32.3636 97.8189 32.4653 97.9084 32.5313C97.999 32.5961 98.11 32.6285 98.2415 32.6285Z" fill="black"/>
</svg>
