<svg width="295" height="52" viewBox="0 0 295 52" fill="none" xmlns="http://www.w3.org/2000/svg">
<path d="M0 0H52V52H0V0Z" fill="#689775"/>
<path d="M25.7108 3.4753C25.0401 3.87759 24.919 4.26159 24.919 5.99873V7.27872L23.6242 7.58044C22.9069 7.74501 21.9939 7.98272 21.5934 8.11072C19.4042 8.80558 17.746 10.0581 17.746 11.0181C17.746 12.1427 19.2645 13.0021 22.292 13.5873L22.5901 13.6513V13.1301C22.5901 12.8376 22.6553 12.4719 22.7392 12.2981C22.9069 11.9599 23.5217 11.3839 24.0434 11.0821L24.3694 10.8901L24.3508 12.4719C24.3321 13.3313 24.3135 14.4376 24.2856 14.9221L24.2483 15.809L23.4006 16.1016C22.1616 16.5313 21.2953 16.9336 20.4103 17.5004C18.6403 18.6341 17.8299 19.905 18.2211 20.9199C18.3609 21.2947 18.9384 21.8433 19.4601 22.1084C19.9911 22.3736 21.3698 22.7393 22.2082 22.8307L22.7764 22.8947L22.6367 22.5656C22.4597 22.145 22.4597 21.4684 22.6274 21.1484C22.8323 20.7736 23.9875 19.7587 24.211 19.7587C24.239 19.7587 24.2669 20.865 24.2669 22.2181V24.6776L23.6428 24.9336C20.6898 26.1678 18.9105 27.3747 18.3143 28.5541C17.8764 29.4044 17.9603 29.9621 18.6217 30.529C19.3017 31.105 20.6898 31.6078 22.1523 31.7816L22.6926 31.8456L22.5063 31.5438C22.1337 30.9496 22.3386 29.9804 22.9348 29.505C23.2422 29.2581 24.0899 28.8101 24.2576 28.8101C24.3508 28.8101 24.3694 28.8833 24.3228 29.0936C24.2949 29.249 24.2669 30.337 24.2669 31.4981V33.6101L23.531 33.9118C21.6213 34.6981 19.7955 36.2158 19.7955 37.0113C19.7955 37.6238 21.1928 37.6604 23.0745 37.0935C23.6801 36.9107 24.1924 36.7644 24.211 36.7644C24.2297 36.7644 24.2669 37.9713 24.2949 39.4341C24.3415 42.1587 24.4719 43.3564 24.9749 45.8615C25.2916 47.4707 26.1394 50.2775 26.7821 51.8958C26.8846 52.1518 26.9219 52.0512 27.4435 50.2501C29.1017 44.4993 29.2973 43.3107 29.3626 38.3827L29.4091 34.9175L30.024 34.497C31.5238 33.4456 32.2783 32.8238 32.3342 32.5861C32.4367 32.2113 32.1106 32.0101 31.4027 32.0101C30.853 32.0101 29.9401 32.129 29.5675 32.2387C29.3998 32.2936 29.3905 32.2113 29.3905 29.697V27.0913L31.0953 26.5336C34.1787 25.5187 34.7749 25.1073 34.4209 24.2021C34.3091 23.8913 33.7222 23.5256 33.0515 23.3427C32.651 23.233 32.12 23.1873 30.9462 23.1873H29.3905V18.305L29.6048 18.2501C30.3686 18.0399 33.0236 17.1439 33.3869 16.9884C34.4954 16.4764 34.8401 16.0833 34.5886 15.5896C34.2253 14.849 32.4274 14.3736 30.35 14.4833L29.3905 14.529V10.0216L31.561 9.52786C32.7441 9.25358 33.8806 8.96101 34.0669 8.86958C34.6911 8.55872 34.6072 8.10158 33.862 7.79072C32.8186 7.35187 31.1884 7.05015 29.8656 7.05015H28.9713V5.69701C28.962 4.21587 28.9061 3.9873 28.3658 3.5393C28.0863 3.31073 28.0211 3.30159 27.0337 3.30159C26.1766 3.30159 25.9437 3.32902 25.7108 3.4753Z" fill="white"/>
<path d="M78.2311 32.4241C73.7542 32.4241 70.4559 31.4733 68.3363 29.5716C66.2166 27.6698 65.1568 24.9559 65.1568 21.4298C65.1568 17.8839 66.2166 15.0809 68.3363 13.0207C70.4559 10.9605 73.7542 9.93041 78.2311 9.93041C84.4909 9.93041 88.6806 12.0797 90.8003 16.3784C89.0174 16.9925 86.9275 17.9136 84.5305 19.1418C83.9561 18.0325 83.0448 17.2104 81.7968 16.6756C80.5686 16.1407 79.3107 15.8733 78.0231 15.8733C76.1214 15.8733 74.705 16.3784 73.774 17.3887C72.8429 18.3792 72.3774 19.6074 72.3774 21.0733C72.3774 22.658 72.8726 23.9556 73.8631 24.9658C74.8734 25.9563 76.4086 26.4516 78.4688 26.4516C80.113 26.4516 81.4205 26.1841 82.3911 25.6493C83.3618 25.0946 84.0749 24.223 84.5305 23.0344C86.1549 23.906 88.2349 24.8866 90.7706 25.9761C89.7801 28.3731 88.126 30.047 85.8083 30.9978C83.4906 31.9487 80.9648 32.4241 78.2311 32.4241Z" fill="#E7C873"/>
<path d="M106.292 24.0744C109.68 24.0744 111.373 25.154 111.373 27.3133C111.373 28.8584 110.779 30.047 109.59 30.879C108.422 31.711 106.302 32.127 103.232 32.127H93.1881C93.2871 29.8687 93.3367 27.1647 93.3367 24.015C93.3367 20.8653 93.2871 18.1613 93.1881 15.903H99.3389V15.9327H103.202C105.064 15.9327 106.52 16.0912 107.57 16.4081C108.64 16.7053 109.392 17.1411 109.828 17.7156C110.264 18.29 110.482 19.023 110.482 19.9144C110.482 21.9152 109.085 23.3018 106.292 24.0744ZM99.3389 20.0036V22.0836H101.597C102.508 22.0836 103.152 22.0043 103.529 21.8458C103.905 21.6676 104.093 21.3605 104.093 20.9247C104.093 20.5879 103.895 20.3502 103.499 20.2116C103.123 20.0729 102.489 20.0036 101.597 20.0036H99.3389ZM101.597 28.0264C102.726 28.0264 103.499 27.9472 103.915 27.7887C104.331 27.6104 104.539 27.3034 104.539 26.8676C104.539 26.4912 104.321 26.2138 103.885 26.0356C103.449 25.8573 102.687 25.7681 101.597 25.7681H99.3389V28.0264H101.597Z" fill="#E7C873"/>
<path d="M132.489 27.1944C132.489 27.8679 132.569 28.3434 132.727 28.6207C132.886 28.898 133.203 29.0961 133.678 29.215L133.559 32.0081C132.925 32.1072 132.371 32.1765 131.895 32.2161C131.44 32.2557 130.825 32.2756 130.053 32.2756C128.349 32.2756 127.22 31.8992 126.665 31.1464C126.111 30.3738 125.833 29.3933 125.833 28.2047V27.4618C125.259 29.0862 124.417 30.2946 123.308 31.087C122.218 31.8794 120.822 32.2756 119.118 32.2756C117.137 32.2756 115.641 31.8794 114.631 31.087C113.641 30.2946 113.145 29.1159 113.145 27.551C113.145 26.2634 113.571 25.2531 114.423 24.5201C115.275 23.7872 116.592 23.282 118.375 23.0047C116.87 21.935 115.364 21.0039 113.859 20.2116C115.047 18.706 116.404 17.567 117.929 16.7944C119.455 16.002 121.307 15.6058 123.486 15.6058C126.537 15.6058 128.795 16.2695 130.261 17.5967C131.747 18.9041 132.489 20.9247 132.489 23.6584V27.1944ZM124.11 20.8356C123.1 20.8356 122.208 21.0039 121.436 21.3407C120.663 21.6775 119.97 22.1826 119.356 22.8561C120.544 22.7175 122.03 22.6481 123.813 22.6481C124.546 22.6481 125.061 22.559 125.358 22.3807C125.655 22.2024 125.804 21.9746 125.804 21.6973C125.804 21.4596 125.655 21.2615 125.358 21.103C125.061 20.9247 124.645 20.8356 124.11 20.8356ZM120.99 27.4321C122.099 27.4321 123.1 27.2241 123.991 26.8081C124.883 26.3723 125.497 25.8077 125.833 25.1144V24.3418C125.358 24.5796 124.833 24.7677 124.259 24.9064C123.684 25.0253 122.991 25.1441 122.179 25.263L121.109 25.4413C119.999 25.6592 119.445 26.0356 119.445 26.5704C119.445 27.1449 119.96 27.4321 120.99 27.4321Z" fill="#E7C873"/>
<path d="M154.068 15.903C153.969 18.7754 153.92 21.3704 153.92 23.6881C153.92 25.9662 153.969 28.5613 154.068 31.4733H147.977L148.304 21.1921L143.757 31.4733H135.467C135.586 28.8584 135.645 26.2634 135.645 23.6881C135.645 21.0733 135.586 18.4782 135.467 15.903H141.321L141.024 26.4516L145.57 15.903H154.068ZM144.471 15.1898C143.539 15.1898 142.678 14.9818 141.885 14.5658C141.113 14.1498 140.499 13.5556 140.043 12.783C139.587 12.0104 139.36 11.1091 139.36 10.079H142.301C142.301 10.8516 142.499 11.426 142.896 11.8024C143.312 12.159 143.837 12.3373 144.471 12.3373C145.104 12.3373 145.619 12.159 146.016 11.8024C146.432 11.426 146.64 10.8516 146.64 10.079H149.581C149.581 11.1091 149.354 12.0104 148.898 12.783C148.442 13.5556 147.818 14.1498 147.026 14.5658C146.253 14.9818 145.402 15.1898 144.471 15.1898Z" fill="#E7C873"/>
<path d="M184.23 10.5544L186.548 32.127H178.852L178.376 16.735L175.405 32.127H167.62L164.589 16.8538L164.143 32.127H156.447L158.765 10.5544H168.868L171.453 24.6093L173.711 10.5544H184.23Z" fill="black"/>
<path d="M198.486 32.4241C195.099 32.4241 192.603 31.6516 190.998 30.1064C189.413 28.5415 188.621 26.4912 188.621 23.9556C188.621 21.4794 189.413 19.4687 190.998 17.9236C192.603 16.3784 195.099 15.6058 198.486 15.6058C200.764 15.6058 202.666 15.9822 204.191 16.735C205.736 17.4679 206.875 18.4683 207.608 19.7361C208.341 20.9841 208.708 22.3906 208.708 23.9556C208.708 26.511 207.856 28.5613 206.152 30.1064C204.468 31.6516 201.913 32.4241 198.486 32.4241ZM198.605 27.3727C199.892 27.3727 200.853 27.0656 201.487 26.4516C202.121 25.8375 202.438 25.0154 202.438 23.9853C202.438 23.0146 202.121 22.2222 201.487 21.6081C200.853 20.9742 199.892 20.6573 198.605 20.6573C197.317 20.6573 196.376 20.9643 195.782 21.5784C195.188 22.1925 194.891 22.9948 194.891 23.9853C194.891 25.0154 195.188 25.8375 195.782 26.4516C196.376 27.0656 197.317 27.3727 198.605 27.3727Z" fill="black"/>
<path d="M229.517 15.903C229.418 18.914 229.369 21.618 229.369 24.015C229.369 26.4119 229.418 29.1159 229.517 32.127H223.069V26.719H217.245V32.127H210.797C210.896 29.8687 210.946 27.1647 210.946 24.015C210.946 20.8653 210.896 18.1613 210.797 15.903H217.245V21.311H223.069V15.903H229.517Z" fill="black"/>
<path d="M249.93 21.4893C246.959 21.41 244.799 21.3605 243.452 21.3407V32.127H237.153V21.3407C235.826 21.3605 233.676 21.41 230.705 21.4893V15.903H249.93V21.4893Z" fill="black"/>
<path d="M270.179 27.1944C270.179 27.8679 270.258 28.3434 270.417 28.6207C270.575 28.898 270.892 29.0961 271.368 29.215L271.249 32.0081C270.615 32.1072 270.06 32.1765 269.585 32.2161C269.129 32.2557 268.515 32.2756 267.743 32.2756C266.039 32.2756 264.91 31.8992 264.355 31.1464C263.8 30.3738 263.523 29.3933 263.523 28.2047V27.4618C262.949 29.0862 262.107 30.2946 260.997 31.087C259.908 31.8794 258.511 32.2756 256.808 32.2756C254.827 32.2756 253.331 31.8794 252.321 31.087C251.33 30.2946 250.835 29.1159 250.835 27.551C250.835 26.2634 251.261 25.2531 252.113 24.5201C252.965 23.7872 254.282 23.282 256.065 23.0047C254.559 21.935 253.054 21.0039 251.548 20.2116C252.737 18.706 254.094 17.567 255.619 16.7944C257.144 16.002 258.997 15.6058 261.176 15.6058C264.226 15.6058 266.485 16.2695 267.951 17.5967C269.436 18.9041 270.179 20.9247 270.179 23.6584V27.1944ZM261.8 20.8356C260.789 20.8356 259.898 21.0039 259.125 21.3407C258.353 21.6775 257.66 22.1826 257.045 22.8561C258.234 22.7175 259.72 22.6481 261.503 22.6481C262.236 22.6481 262.751 22.559 263.048 22.3807C263.345 22.2024 263.493 21.9746 263.493 21.6973C263.493 21.4596 263.345 21.2615 263.048 21.103C262.751 20.9247 262.335 20.8356 261.8 20.8356ZM258.68 27.4321C259.789 27.4321 260.789 27.2241 261.681 26.8081C262.572 26.3723 263.186 25.8077 263.523 25.1144V24.3418C263.048 24.5796 262.523 24.7677 261.948 24.9064C261.374 25.0253 260.68 25.1441 259.868 25.263L258.799 25.4413C257.689 25.6592 257.135 26.0356 257.135 26.5704C257.135 27.1449 257.65 27.4321 258.68 27.4321Z" fill="black"/>
<path d="M290.005 23.2721C290.52 23.5693 290.976 23.9357 291.372 24.3716C292.045 25.0847 292.56 25.8771 292.917 26.7487C293.273 27.6005 293.63 28.6801 293.987 29.9876C294.244 30.9384 294.462 31.6516 294.64 32.127H288.905C288.826 31.8496 288.727 31.394 288.608 30.7601C288.489 30.047 288.371 29.4725 288.252 29.0367C288.133 28.6009 287.955 28.2146 287.717 27.8778C287.4 27.4024 287.053 27.026 286.677 26.7487C286.3 26.4516 285.865 26.2336 285.369 26.095C285.369 27.4222 285.409 29.4329 285.488 32.127H281.061C281.14 29.4725 281.18 27.4816 281.18 26.1544C280.744 26.2931 280.358 26.511 280.021 26.8081C279.684 27.0855 279.357 27.442 279.04 27.8778C278.803 28.2146 278.624 28.6009 278.505 29.0367C278.387 29.4725 278.268 30.047 278.149 30.7601C278.03 31.394 277.931 31.8496 277.852 32.127H272.117C272.295 31.6516 272.513 30.9384 272.771 29.9876C273.127 28.6801 273.484 27.6005 273.84 26.7487C274.197 25.8771 274.712 25.0847 275.385 24.3716C275.782 23.9357 276.237 23.5693 276.752 23.2721L271.968 15.903H277.941C278.773 17.8047 279.852 19.7163 281.18 21.6378C281.14 19.0626 281.1 17.151 281.061 15.903H285.488C285.409 18.5178 285.369 20.479 285.369 21.7864L285.459 21.8161C286.806 19.8946 287.925 17.9236 288.816 15.903H294.789L290.005 23.2721Z" fill="black"/>
<path d="M67.6108 45.7302V39.2753H72.5539V45.7302H72.084V39.7098H68.0852V45.7302H67.6108Z" fill="black"/>
<path d="M74.0657 45.7302V39.2753H76.1626C76.8897 39.2753 77.435 39.4526 77.7985 39.8073C78.165 40.162 78.3482 40.6245 78.3482 41.1949C78.3482 41.7594 78.165 42.2205 77.7985 42.5781C77.435 42.9328 76.8897 43.1101 76.1626 43.1101H74.54V45.7302H74.0657ZM74.54 42.6712H76.1626C76.7951 42.6712 77.2384 42.5308 77.4926 42.25C77.7468 41.9693 77.8739 41.6175 77.8739 41.1949C77.8739 40.7693 77.7468 40.4161 77.4926 40.1354C77.2384 39.8546 76.7951 39.7142 76.1626 39.7142H74.54V42.6712Z" fill="black"/>
<path d="M79.0797 42.6224V42.383C79.0797 41.3575 79.3383 40.561 79.8555 39.9935C80.3757 39.426 81.0451 39.1423 81.8638 39.1423C82.6795 39.1423 83.346 39.426 83.8632 39.9935C84.3834 40.561 84.6435 41.3575 84.6435 42.383V42.6224C84.6435 43.648 84.3834 44.4445 83.8632 45.012C83.346 45.5794 82.6795 45.8632 81.8638 45.8632C81.0481 45.8632 80.3801 45.5794 79.86 45.012C79.3398 44.4445 79.0797 43.648 79.0797 42.6224ZM79.5629 42.6224C79.5629 43.5357 79.7743 44.2302 80.1969 44.7061C80.6195 45.179 81.1752 45.4154 81.8638 45.4154C82.5495 45.4154 83.1037 45.179 83.5263 44.7061C83.9519 44.2302 84.1647 43.5357 84.1647 42.6224V42.383C84.1647 41.4698 83.9519 40.7767 83.5263 40.3038C83.1037 39.828 82.5495 39.5901 81.8638 39.5901C81.1752 39.5901 80.6195 39.828 80.1969 40.3038C79.7743 40.7767 79.5629 41.4698 79.5629 42.383V42.6224Z" fill="black"/>
<path d="M91.32 47.0158V45.7302H85.6986V47.0158H85.273V45.2957H91.7456V47.0158H91.32ZM86.6074 39.2753H90.8412V45.7302H90.3668V39.7098H87.0286L86.8557 43.2387C86.8291 43.7854 86.7788 44.2361 86.705 44.5908C86.634 44.9425 86.5306 45.2514 86.3946 45.5174H85.8538C86.0606 45.2336 86.1981 44.9115 86.2661 44.5509C86.334 44.1874 86.3828 43.7308 86.4124 43.181L86.6074 39.2753Z" fill="black"/>
<path d="M91.9185 45.7302L94.5341 39.2354H95.1592L97.7749 45.7302H97.2429L95.1504 40.4102C95.0912 40.2654 95.0366 40.1294 94.9863 40.0024C94.9361 39.8723 94.8903 39.7423 94.8489 39.6122H94.7957C94.7543 39.7423 94.7085 39.8723 94.6583 40.0024C94.611 40.1294 94.5563 40.2654 94.4942 40.4102L92.4017 45.7302H91.9185ZM92.8717 43.9214L93.049 43.4869L96.6133 43.4781L96.7951 43.917L92.8717 43.9214Z" fill="black"/>
<path d="M101.667 45.7302V39.2753H102.142V45.7302H101.667ZM105.48 45.7302L103.006 42.4141L103.507 42.3077L106.074 45.7302H105.48ZM101.902 42.1835H103.192L105.236 39.2753H105.777L103.387 42.618H101.902V42.1835ZM97.7527 45.7302L100.315 42.3077L100.798 42.4141L98.3246 45.7302H97.7527ZM101.902 42.1835V42.618H100.404L98.0143 39.2753H98.5684L100.617 42.1835H101.902Z" fill="black"/>
<path d="M106.043 45.7302L108.659 39.2354H109.284L111.899 45.7302H111.367L109.275 40.4102C109.216 40.2654 109.161 40.1294 109.111 40.0024C109.061 39.8723 109.015 39.7423 108.973 39.6122H108.92C108.879 39.7423 108.833 39.8723 108.783 40.0024C108.735 40.1294 108.681 40.2654 108.619 40.4102L106.526 45.7302H106.043ZM106.996 43.9214L107.173 43.4869L110.738 43.4781L110.92 43.917L106.996 43.9214Z" fill="black"/>
<path d="M119.901 45.7302H119.427V40.4368C119.427 40.3482 119.43 40.2462 119.436 40.1309C119.442 40.0127 119.452 39.9063 119.467 39.8117H119.427C119.395 39.8827 119.349 39.9669 119.29 40.0644C119.23 40.162 119.17 40.2565 119.108 40.3482L115.442 45.7302H114.887V39.2753H115.362V44.6883C115.362 44.777 115.359 44.8612 115.353 44.941C115.35 45.0208 115.345 45.1051 115.34 45.1937H115.375C115.422 45.1021 115.47 45.0134 115.517 44.9277C115.564 44.8391 115.62 44.7475 115.685 44.6529L119.347 39.2753H119.901V45.7302Z" fill="black"/>
<path d="M123.63 45.7302V39.2753H124.193L126.671 44.6307C126.712 44.7194 126.761 44.8391 126.817 44.9898C126.873 45.1405 126.907 45.2558 126.919 45.3356H126.964C126.981 45.2469 127.017 45.1302 127.07 44.9854C127.123 44.8376 127.17 44.7194 127.212 44.6307L129.703 39.2753H130.293V45.7302H129.823V40.428C129.823 40.3393 129.825 40.2403 129.828 40.1309C129.833 40.0186 129.842 39.9181 129.854 39.8295H129.814C129.791 39.9181 129.758 40.0186 129.717 40.1309C129.678 40.2403 129.638 40.3393 129.597 40.428L127.168 45.7302H126.715L124.281 40.428C124.237 40.3393 124.194 40.2403 124.153 40.1309C124.112 40.0186 124.08 39.9181 124.06 39.8295H124.011C124.023 39.9181 124.033 40.0186 124.042 40.1309C124.054 40.2403 124.06 40.3393 124.06 40.428V45.7302H123.63Z" fill="black"/>
<path d="M131.561 42.6224V42.383C131.561 41.3575 131.82 40.561 132.337 39.9935C132.857 39.426 133.526 39.1423 134.345 39.1423C135.161 39.1423 135.827 39.426 136.344 39.9935C136.865 40.561 137.125 41.3575 137.125 42.383V42.6224C137.125 43.648 136.865 44.4445 136.344 45.012C135.827 45.5794 135.161 45.8632 134.345 45.8632C133.529 45.8632 132.861 45.5794 132.341 45.012C131.821 44.4445 131.561 43.648 131.561 42.6224ZM132.044 42.6224C132.044 43.5357 132.255 44.2302 132.678 44.7061C133.101 45.179 133.656 45.4154 134.345 45.4154C135.031 45.4154 135.585 45.179 136.008 44.7061C136.433 44.2302 136.646 43.5357 136.646 42.6224V42.383C136.646 41.4698 136.433 40.7767 136.008 40.3038C135.585 39.828 135.031 39.5901 134.345 39.5901C133.656 39.5901 133.101 39.828 132.678 40.3038C132.255 40.7767 132.044 41.4698 132.044 42.383V42.6224Z" fill="black"/>
<path d="M138.393 45.7302V39.2753H138.867V42.1835H142.91V39.2753H143.38V45.7302H142.91V42.618H138.867V45.7302H138.393Z" fill="black"/>
<path d="M144.245 39.7142V39.2753H149.378V39.7142H147.051V45.7302H146.576V39.7142H144.245Z" fill="black"/>
<path d="M149.498 45.7302L152.114 39.2354H152.739L155.354 45.7302H154.822L152.73 40.4102C152.671 40.2654 152.616 40.1294 152.566 40.0024C152.516 39.8723 152.47 39.7423 152.428 39.6122H152.375C152.334 39.7423 152.288 39.8723 152.238 40.0024C152.19 40.1294 152.136 40.2654 152.074 40.4102L149.981 45.7302H149.498ZM150.451 43.9214L150.628 43.4869L154.193 43.4781L154.375 43.917L150.451 43.9214Z" fill="black"/>
<path d="M159.247 45.7302V39.2753H159.721V45.7302H159.247ZM163.059 45.7302L160.586 42.4141L161.087 42.3077L163.653 45.7302H163.059ZM159.482 42.1835H160.772L162.816 39.2753H163.356L160.967 42.618H159.482V42.1835ZM155.332 45.7302L157.895 42.3077L158.378 42.4141L155.904 45.7302H155.332ZM159.482 42.1835V42.618H157.983L155.594 39.2753H156.148L158.196 42.1835H159.482Z" fill="black"/>
<path d="M166.579 45.7302V39.2753H168.681C169.328 39.2753 169.832 39.4068 170.193 39.6699C170.556 39.9329 170.738 40.3482 170.738 40.9156C170.738 41.288 170.643 41.5954 170.454 41.8377C170.268 42.0801 170.033 42.2441 169.749 42.3298V42.3476C170.101 42.4362 170.386 42.6165 170.605 42.8884C170.827 43.1603 170.937 43.515 170.937 43.9524C170.937 44.5199 170.747 44.9588 170.365 45.2691C169.987 45.5765 169.479 45.7302 168.84 45.7302H166.579ZM167.054 45.3046H168.84C169.399 45.3046 169.808 45.1819 170.068 44.9366C170.329 44.6913 170.459 44.3588 170.459 43.9391C170.459 43.5224 170.329 43.1914 170.068 42.9461C169.808 42.7008 169.399 42.5781 168.84 42.5781H167.054V45.3046ZM167.054 42.1614H168.681C169.242 42.1614 169.646 42.0535 169.891 41.8377C170.139 41.619 170.263 41.3161 170.263 40.9289C170.263 40.5329 170.139 40.2299 169.891 40.0201C169.646 39.8073 169.242 39.7009 168.681 39.7009H167.054V42.1614Z" fill="black"/>
<path d="M177.153 45.7302H176.678V40.4368C176.678 40.3482 176.681 40.2462 176.687 40.1309C176.693 40.0127 176.704 39.9063 176.718 39.8117H176.678C176.646 39.8827 176.6 39.9669 176.541 40.0644C176.482 40.162 176.421 40.2565 176.359 40.3482L172.693 45.7302H172.139V39.2753H172.613V44.6883C172.613 44.777 172.61 44.8612 172.604 44.941C172.601 45.0208 172.597 45.1051 172.591 45.1937H172.626C172.674 45.1021 172.721 45.0134 172.768 44.9277C172.816 44.8391 172.872 44.7475 172.937 44.6529L176.599 39.2753H177.153V45.7302Z" fill="black"/>
<path d="M178.665 45.7302V39.2753H179.139V42.1835H183.182V39.2753H183.652V45.7302H183.182V42.618H179.139V45.7302H178.665Z" fill="black"/>
<path d="M184.516 39.7142V39.2753H189.65V39.7142H187.323V45.7302H186.848V39.7142H184.516Z" fill="black"/>
<path d="M190.266 42.6224V42.383C190.266 41.3575 190.525 40.561 191.042 39.9935C191.562 39.426 192.232 39.1423 193.051 39.1423C193.866 39.1423 194.533 39.426 195.05 39.9935C195.57 40.561 195.83 41.3575 195.83 42.383V42.6224C195.83 43.648 195.57 44.4445 195.05 45.012C194.533 45.5794 193.866 45.8632 193.051 45.8632C192.235 45.8632 191.567 45.5794 191.047 45.012C190.527 44.4445 190.266 43.648 190.266 42.6224ZM190.75 42.6224C190.75 43.5357 190.961 44.2302 191.384 44.7061C191.806 45.179 192.362 45.4154 193.051 45.4154C193.736 45.4154 194.29 45.179 194.713 44.7061C195.139 44.2302 195.351 43.5357 195.351 42.6224V42.383C195.351 41.4698 195.139 40.7767 194.713 40.3038C194.29 39.828 193.736 39.5901 193.051 39.5901C192.362 39.5901 191.806 39.828 191.384 40.3038C190.961 40.7767 190.75 41.4698 190.75 42.383V42.6224Z" fill="black"/>
<path d="M197.098 45.7302V39.2753H199.2C199.847 39.2753 200.351 39.4068 200.711 39.6699C201.075 39.9329 201.257 40.3482 201.257 40.9156C201.257 41.288 201.162 41.5954 200.973 41.8377C200.787 42.0801 200.552 42.2441 200.268 42.3298V42.3476C200.62 42.4362 200.905 42.6165 201.124 42.8884C201.345 43.1603 201.456 43.515 201.456 43.9524C201.456 44.5199 201.265 44.9588 200.884 45.2691C200.506 45.5765 199.998 45.7302 199.359 45.7302H197.098ZM197.573 45.3046H199.359C199.918 45.3046 200.327 45.1819 200.587 44.9366C200.847 44.6913 200.977 44.3588 200.977 43.9391C200.977 43.5224 200.847 43.1914 200.587 42.9461C200.327 42.7008 199.918 42.5781 199.359 42.5781H197.573V45.3046ZM197.573 42.1614H199.2C199.761 42.1614 200.165 42.0535 200.41 41.8377C200.658 41.619 200.782 41.3161 200.782 40.9289C200.782 40.5329 200.658 40.2299 200.41 40.0201C200.165 39.8073 199.761 39.7009 199.2 39.7009H197.573V42.1614Z" fill="black"/>
<path d="M202.657 39.2753H203.132V41.851H204.754C205.482 41.851 206.027 42.0313 206.39 42.3919C206.757 42.7525 206.94 43.218 206.94 43.7884C206.94 44.3647 206.757 44.8332 206.39 45.1937C206.027 45.5514 205.482 45.7302 204.754 45.7302H202.657V39.2753ZM203.132 42.2855V45.2957H204.754C205.387 45.2957 205.83 45.1538 206.084 44.8701C206.339 44.5834 206.466 44.2228 206.466 43.7884C206.466 43.3598 206.339 43.0022 206.084 42.7155C205.83 42.4288 205.387 42.2855 204.754 42.2855H203.132ZM208.026 45.7302H208.501V39.2753H208.026V45.7302Z" fill="black"/>
<path d="M209.365 45.7302L212.056 42.2722H212.118L214.384 39.2753H214.929L212.384 42.618L212.318 42.6224L209.906 45.7302H209.365ZM209.498 39.2753H210.105L212.38 42.2855H212.406L215.071 45.7302H214.459L212.078 42.6313H212.052L209.498 39.2753Z" fill="black"/>
<path d="M217.904 42.6224V42.383C217.904 41.3575 218.162 40.561 218.679 39.9935C219.2 39.426 219.851 39.1423 220.634 39.1423C221.406 39.1423 221.993 39.3448 222.394 39.7497C222.799 40.1546 223.037 40.6792 223.108 41.3235L223.113 41.3678H222.629L222.625 41.3235C222.575 40.8565 222.394 40.4516 222.084 40.1088C221.777 39.763 221.294 39.5901 220.634 39.5901C219.975 39.5901 219.436 39.8324 219.016 40.3171C218.597 40.8018 218.387 41.4905 218.387 42.383V42.6224C218.387 43.5268 218.597 44.2184 219.016 44.6972C219.436 45.176 219.975 45.4154 220.634 45.4154C221.296 45.4154 221.783 45.244 222.093 44.9011C222.403 44.5553 222.581 44.149 222.625 43.682L222.629 43.6377H223.113L223.108 43.682C223.046 44.3263 222.811 44.8509 222.403 45.2558C221.995 45.6607 221.406 45.8632 220.634 45.8632C219.851 45.8632 219.2 45.5809 218.679 45.0164C218.162 44.4489 217.904 43.651 217.904 42.6224Z" fill="black"/>
<path d="M224.07 45.7302V39.2753H226.172C226.819 39.2753 227.323 39.4068 227.683 39.6699C228.047 39.9329 228.229 40.3482 228.229 40.9156C228.229 41.288 228.134 41.5954 227.945 41.8377C227.759 42.0801 227.524 42.2441 227.24 42.3298V42.3476C227.592 42.4362 227.877 42.6165 228.096 42.8884C228.317 43.1603 228.428 43.515 228.428 43.9524C228.428 44.5199 228.238 44.9588 227.856 45.2691C227.478 45.5765 226.97 45.7302 226.331 45.7302H224.07ZM224.545 45.3046H226.331C226.89 45.3046 227.299 45.1819 227.559 44.9366C227.819 44.6913 227.949 44.3588 227.949 43.9391C227.949 43.5224 227.819 43.1914 227.559 42.9461C227.299 42.7008 226.89 42.5781 226.331 42.5781H224.545V45.3046ZM224.545 42.1614H226.172C226.733 42.1614 227.137 42.0535 227.382 41.8377C227.63 41.619 227.754 41.3161 227.754 40.9289C227.754 40.5329 227.63 40.2299 227.382 40.0201C227.137 39.8073 226.733 39.7009 226.172 39.7009H224.545V42.1614Z" fill="black"/>
<path d="M228.889 45.7302L231.505 39.2354H232.13L234.746 45.7302H234.214L232.121 40.4102C232.062 40.2654 232.007 40.1294 231.957 40.0024C231.907 39.8723 231.861 39.7423 231.82 39.6122H231.766C231.725 39.7423 231.679 39.8723 231.629 40.0024C231.582 40.1294 231.527 40.2654 231.465 40.4102L229.372 45.7302H228.889ZM229.842 43.9214L230.02 43.4869L233.584 43.4781L233.766 43.917L229.842 43.9214Z" fill="black"/>
<path d="M240.531 45.7302H240.057V40.4368C240.057 40.3482 240.06 40.2462 240.066 40.1309C240.071 40.0127 240.082 39.9063 240.097 39.8117H240.057C240.024 39.8827 239.978 39.9669 239.919 40.0644C239.86 40.162 239.8 40.2565 239.737 40.3482L236.071 45.7302H235.517V39.2753H235.991V44.6883C235.991 44.777 235.988 44.8612 235.982 44.941C235.98 45.0208 235.975 45.1051 235.969 45.1937H236.005C236.052 45.1021 236.099 45.0134 236.147 44.9277C236.194 44.8391 236.25 44.7475 236.315 44.6529L239.977 39.2753H240.531V45.7302ZM238.026 38.034C238.369 38.034 238.656 37.9512 238.886 37.7857C239.12 37.6202 239.3 37.3542 239.427 36.9877L239.822 37.1739C239.686 37.5463 239.463 37.8478 239.152 38.0783C238.845 38.3059 238.47 38.4197 238.026 38.4197C237.583 38.4197 237.205 38.3029 236.891 38.0694C236.581 37.833 236.361 37.5345 236.231 37.1739L236.625 36.9877C236.746 37.3453 236.924 37.6099 237.157 37.7813C237.394 37.9497 237.683 38.034 238.026 38.034Z" fill="black"/>
</svg>
