<svg width="244" height="43" viewBox="0 0 244 43" fill="none" xmlns="http://www.w3.org/2000/svg">
<path d="M0 0H43V43H0V0Z" fill="white"/>
<path d="M21.2609 2.8741C20.7063 3.20676 20.6061 3.5243 20.6061 4.96078V6.01924L19.5354 6.26873C18.9422 6.40482 18.1873 6.60139 17.8561 6.70724C16.0458 7.28183 14.6746 8.31761 14.6746 9.11145C14.6746 10.0414 15.9302 10.7521 18.4338 11.2359L18.6803 11.2889V10.8579C18.6803 10.616 18.7342 10.3136 18.8036 10.1699C18.9422 9.89018 19.4506 9.41387 19.882 9.16438L20.1516 9.00561L20.1362 10.3136C20.1208 11.0242 20.1054 11.9391 20.0823 12.3398L20.0515 13.0731L19.3505 13.3151C18.326 13.6704 17.6095 14.0031 16.8777 14.4718C15.4141 15.4093 14.7439 16.4602 15.0675 17.2994C15.183 17.6094 15.6606 18.063 16.092 18.2823C16.5311 18.5015 17.6712 18.8039 18.3645 18.8795L18.8344 18.9325L18.7188 18.6603C18.5725 18.3125 18.5725 17.753 18.7111 17.4884C18.8806 17.1784 19.8358 16.3392 20.0207 16.3392C20.0438 16.3392 20.0669 17.254 20.0669 18.373V20.4067L19.5508 20.6184C17.1088 21.6391 15.6375 22.6371 15.1445 23.6124C14.7824 24.3155 14.8518 24.7767 15.3987 25.2454C15.961 25.7217 17.1088 26.1375 18.3182 26.2812L18.765 26.3341L18.611 26.0846C18.3028 25.5932 18.4723 24.7918 18.9653 24.3986C19.2195 24.1945 19.9205 23.8241 20.0592 23.8241C20.1362 23.8241 20.1516 23.8845 20.1131 24.0584C20.09 24.187 20.0669 25.0866 20.0669 26.0468V27.7933L19.4583 28.0428C17.8792 28.693 16.3693 29.948 16.3693 30.6058C16.3693 31.1123 17.5248 31.1425 19.0809 30.6738C19.5816 30.5226 20.0053 30.4016 20.0207 30.4016C20.0361 30.4016 20.0669 31.3996 20.09 32.6093C20.1285 34.8623 20.2364 35.8527 20.6523 37.9243C20.9142 39.2549 21.6152 41.5759 22.1468 42.9141C22.2315 43.1258 22.2623 43.0427 22.6937 41.5533C24.0649 36.7977 24.2267 35.8149 24.2806 31.7398L24.3191 28.8744L24.8275 28.5266C26.0677 27.6572 26.6917 27.1431 26.7379 26.9465C26.8227 26.6365 26.553 26.4702 25.9676 26.4702C25.5131 26.4702 24.7582 26.5685 24.45 26.6592C24.3114 26.7046 24.3037 26.6365 24.3037 24.5574V22.4027L25.7134 21.9415C28.2632 21.1023 28.7562 20.7621 28.4634 20.0136C28.371 19.7565 27.8857 19.4541 27.3311 19.3029C26.9998 19.2122 26.5607 19.1744 25.5901 19.1744H24.3037V15.1371L24.4809 15.0918C25.1125 14.9179 27.308 14.1769 27.6084 14.0484C28.5251 13.625 28.8101 13.2999 28.6021 12.8917C28.3017 12.2793 26.8149 11.8861 25.0971 11.9769L24.3037 12.0147V8.28737L26.0985 7.8791C27.0769 7.65229 28.0167 7.41036 28.1707 7.33475C28.6868 7.0777 28.6175 6.69968 28.0012 6.44262C27.1385 6.07972 25.7904 5.83023 24.6965 5.83023H23.957V4.71128C23.9493 3.48649 23.9031 3.29748 23.4563 2.92702C23.2252 2.73801 23.1713 2.73045 22.3548 2.73045C21.6461 2.73045 21.4535 2.75313 21.2609 2.8741Z" fill="#1A1A1A"/>
<path d="M64.6911 26.6584C60.989 26.6584 58.2616 25.8721 56.5088 24.2995C54.7561 22.7269 53.8797 20.4827 53.8797 17.5669C53.8797 14.6347 54.7561 12.3168 56.5088 10.6132C58.2616 8.90959 60.989 8.05778 64.6911 8.05778C69.8675 8.05778 73.3321 9.83511 75.0848 13.3898C73.6105 13.8976 71.8824 14.6593 69.9003 15.6749C69.4252 14.7576 68.6717 14.0778 67.6397 13.6355C66.6241 13.1932 65.5839 12.9721 64.5191 12.9721C62.9465 12.9721 61.7753 13.3898 61.0054 14.2252C60.2355 15.0443 59.8506 16.0599 59.8506 17.2721C59.8506 18.5825 60.2601 19.6555 61.0791 20.4909C61.9146 21.31 63.1841 21.7195 64.8877 21.7195C66.2473 21.7195 67.3285 21.4984 68.1311 21.0561C68.9338 20.5974 69.5235 19.8766 69.9003 18.8938C71.2435 19.6145 72.9635 20.4254 75.0603 21.3264C74.2412 23.3084 72.8734 24.6926 70.9568 25.4789C69.0403 26.2652 66.9517 26.6584 64.6911 26.6584Z" fill="white"/>
<path d="M87.8954 19.7538C90.6965 19.7538 92.0971 20.6465 92.0971 22.4321C92.0971 23.7098 91.6057 24.6926 90.6228 25.3806C89.6563 26.0686 87.9036 26.4126 85.3645 26.4126H77.0594C77.1413 24.5452 77.1822 22.3092 77.1822 19.7046C77.1822 17.1001 77.1413 14.8641 77.0594 12.9966H82.1457V13.0212H85.34C86.8798 13.0212 88.0838 13.1523 88.952 13.4144C89.8365 13.6601 90.459 14.0204 90.8194 14.4955C91.1798 14.9705 91.36 15.5766 91.36 16.3138C91.36 17.9683 90.2051 19.1149 87.8954 19.7538ZM82.1457 16.3875V18.1075H84.0131C84.7666 18.1075 85.299 18.042 85.6102 17.9109C85.9215 17.7635 86.0771 17.5096 86.0771 17.1492C86.0771 16.8707 85.9133 16.6742 85.5857 16.5595C85.2744 16.4448 84.7502 16.3875 84.0131 16.3875H82.1457ZM84.0131 23.0218C84.9468 23.0218 85.5857 22.9563 85.9297 22.8252C86.2737 22.6778 86.4457 22.4239 86.4457 22.0635C86.4457 21.7523 86.2655 21.5229 85.9051 21.3755C85.5447 21.2281 84.914 21.1544 84.0131 21.1544H82.1457V23.0218H84.0131Z" fill="white"/>
<path d="M109.559 22.3338C109.559 22.8907 109.624 23.2839 109.755 23.5132C109.886 23.7425 110.148 23.9064 110.541 24.0046L110.443 26.3144C109.919 26.3963 109.46 26.4536 109.067 26.4864C108.69 26.5191 108.183 26.5355 107.544 26.5355C106.135 26.5355 105.201 26.2243 104.743 25.6018C104.284 24.9629 104.055 24.1521 104.055 23.1692V22.5549C103.58 23.8982 102.883 24.8974 101.966 25.5526C101.065 26.2079 99.9102 26.5355 98.5014 26.5355C96.8633 26.5355 95.6265 26.2079 94.7911 25.5526C93.9721 24.8974 93.5626 23.9227 93.5626 22.6286C93.5626 21.5639 93.9147 20.7284 94.6191 20.1224C95.3235 19.5163 96.4128 19.0985 97.8871 18.8692C96.6422 17.9846 95.3972 17.2147 94.1523 16.5595C95.1351 15.3145 96.2572 14.3726 97.5186 13.7338C98.7799 13.0785 100.312 12.7509 102.113 12.7509C104.636 12.7509 106.504 13.2997 107.716 14.3972C108.944 15.4784 109.559 17.1492 109.559 19.4098V22.3338ZM102.629 17.0755C101.794 17.0755 101.057 17.2147 100.418 17.4932C99.7791 17.7717 99.2058 18.1894 98.698 18.7464C99.6808 18.6317 100.909 18.5744 102.384 18.5744C102.99 18.5744 103.416 18.5006 103.661 18.3532C103.907 18.2058 104.03 18.0174 104.03 17.7881C104.03 17.5915 103.907 17.4277 103.661 17.2966C103.416 17.1492 103.072 17.0755 102.629 17.0755ZM100.049 22.5304C100.967 22.5304 101.794 22.3584 102.531 22.0144C103.268 21.654 103.776 21.1871 104.055 20.6138V19.9749C103.661 20.1715 103.227 20.3271 102.752 20.4418C102.277 20.5401 101.704 20.6384 101.032 20.7366L100.148 20.8841C99.2304 21.0643 98.7717 21.3755 98.7717 21.8178C98.7717 22.2928 99.1976 22.5304 100.049 22.5304Z" fill="white"/>
<path d="M127.403 12.9966C127.321 15.3719 127.28 17.5178 127.28 19.4344C127.28 21.3182 127.321 23.4641 127.403 25.8721H122.365L122.636 17.3704L118.876 25.8721H112.021C112.119 23.7098 112.168 21.5639 112.168 19.4344C112.168 17.2721 112.119 15.1262 112.021 12.9966H116.861L116.616 21.7195L120.375 12.9966H127.403ZM119.466 12.4069C118.696 12.4069 117.984 12.2349 117.328 11.8909C116.689 11.5469 116.182 11.0555 115.805 10.4166C115.428 9.77778 115.24 9.03245 115.24 8.18064H117.672C117.672 8.81949 117.836 9.29454 118.164 9.60578C118.508 9.90064 118.942 10.0481 119.466 10.0481C119.99 10.0481 120.416 9.90064 120.744 9.60578C121.088 9.29454 121.26 8.81949 121.26 8.18064H123.692C123.692 9.03245 123.504 9.77778 123.127 10.4166C122.75 11.0555 122.234 11.5469 121.579 11.8909C120.94 12.2349 120.236 12.4069 119.466 12.4069Z" fill="white"/>
<path d="M152.344 8.57378L154.261 26.4126H147.897L147.503 13.6846L145.046 26.4126H138.609L136.102 13.7829L135.734 26.4126H129.37L131.286 8.57378H139.641L141.778 20.1961L143.646 8.57378H152.344Z" fill="white"/>
<path d="M164.133 26.6584C161.331 26.6584 159.268 26.0195 157.941 24.7418C156.63 23.4477 155.975 21.7523 155.975 19.6555C155.975 17.6079 156.63 15.9452 157.941 14.6675C159.268 13.3898 161.331 12.7509 164.133 12.7509C166.016 12.7509 167.589 13.0622 168.85 13.6846C170.128 14.2907 171.07 15.118 171.676 16.1664C172.282 17.1984 172.585 18.3614 172.585 19.6555C172.585 21.7686 171.881 23.4641 170.472 24.7418C169.08 26.0195 166.967 26.6584 164.133 26.6584ZM164.231 22.4812C165.296 22.4812 166.09 22.2273 166.614 21.7195C167.139 21.2117 167.401 20.5319 167.401 19.6801C167.401 18.8774 167.139 18.2222 166.614 17.7144C166.09 17.1902 165.296 16.9281 164.231 16.9281C163.166 16.9281 162.388 17.182 161.897 17.6898C161.405 18.1976 161.16 18.861 161.16 19.6801C161.16 20.5319 161.405 21.2117 161.897 21.7195C162.388 22.2273 163.166 22.4812 164.231 22.4812Z" fill="white"/>
<path d="M189.793 12.9966C189.711 15.4865 189.67 17.7225 189.67 19.7046C189.67 21.6867 189.711 23.9227 189.793 26.4126H184.461V21.9406H179.645V26.4126H174.313C174.395 24.5452 174.436 22.3092 174.436 19.7046C174.436 17.1001 174.395 14.8641 174.313 12.9966H179.645V17.4686H184.461V12.9966H189.793Z" fill="white"/>
<path d="M206.673 17.6161C204.216 17.5505 202.43 17.5096 201.316 17.4932V26.4126H196.107V17.4932C195.01 17.5096 193.232 17.5505 190.775 17.6161V12.9966H206.673V17.6161Z" fill="white"/>
<path d="M223.417 22.3338C223.417 22.8907 223.483 23.2839 223.614 23.5132C223.745 23.7425 224.007 23.9064 224.4 24.0046L224.302 26.3144C223.778 26.3963 223.319 26.4536 222.926 26.4864C222.549 26.5191 222.041 26.5355 221.403 26.5355C219.994 26.5355 219.06 26.2243 218.601 25.6018C218.143 24.9629 217.913 24.1521 217.913 23.1692V22.5549C217.438 23.8982 216.742 24.8974 215.825 25.5526C214.924 26.2079 213.769 26.5355 212.36 26.5355C210.722 26.5355 209.485 26.2079 208.65 25.5526C207.831 24.8974 207.421 23.9227 207.421 22.6286C207.421 21.5639 207.774 20.7284 208.478 20.1224C209.182 19.5163 210.272 19.0985 211.746 18.8692C210.501 17.9846 209.256 17.2147 208.011 16.5595C208.994 15.3145 210.116 14.3726 211.377 13.7338C212.639 13.0785 214.17 12.7509 215.972 12.7509C218.495 12.7509 220.362 13.2997 221.575 14.3972C222.803 15.4784 223.417 17.1492 223.417 19.4098V22.3338ZM216.488 17.0755C215.653 17.0755 214.916 17.2147 214.277 17.4932C213.638 17.7717 213.065 18.1894 212.557 18.7464C213.54 18.6317 214.768 18.5744 216.243 18.5744C216.849 18.5744 217.275 18.5006 217.52 18.3532C217.766 18.2058 217.889 18.0174 217.889 17.7881C217.889 17.5915 217.766 17.4277 217.52 17.2966C217.275 17.1492 216.931 17.0755 216.488 17.0755ZM213.908 22.5304C214.826 22.5304 215.653 22.3584 216.39 22.0144C217.127 21.654 217.635 21.1871 217.913 20.6138V19.9749C217.52 20.1715 217.086 20.3271 216.611 20.4418C216.136 20.5401 215.563 20.6384 214.891 20.7366L214.007 20.8841C213.089 21.0643 212.631 21.3755 212.631 21.8178C212.631 22.2928 213.056 22.5304 213.908 22.5304Z" fill="white"/>
<path d="M239.812 19.0904C240.238 19.3361 240.614 19.6391 240.942 19.9995C241.499 20.5892 241.925 21.2444 242.22 21.9652C242.515 22.6696 242.809 23.5624 243.104 24.6435C243.317 25.4298 243.497 26.0195 243.645 26.4126H238.903C238.837 26.1833 238.755 25.8065 238.657 25.2824C238.559 24.6926 238.46 24.2176 238.362 23.8572C238.264 23.4968 238.116 23.1774 237.92 22.8989C237.658 22.5058 237.371 22.1945 237.06 21.9652C236.748 21.7195 236.388 21.5393 235.979 21.4246C235.979 22.5222 236.011 24.1848 236.077 26.4126H232.416C232.481 24.2176 232.514 22.5713 232.514 21.4738C232.154 21.5884 231.834 21.7686 231.556 22.0144C231.277 22.2437 231.007 22.5385 230.745 22.8989C230.548 23.1774 230.401 23.4968 230.303 23.8572C230.204 24.2176 230.106 24.6926 230.008 25.2824C229.909 25.8065 229.827 26.1833 229.762 26.4126H225.02C225.167 26.0195 225.347 25.4298 225.56 24.6435C225.855 23.5624 226.15 22.6696 226.445 21.9652C226.74 21.2444 227.166 20.5892 227.723 19.9995C228.05 19.6391 228.427 19.3361 228.853 19.0904L224.897 12.9966H229.836C230.524 14.5692 231.416 16.15 232.514 17.7389C232.481 15.6094 232.448 14.0286 232.416 12.9966H236.077C236.011 15.1589 235.979 16.7806 235.979 17.8618L236.052 17.8864C237.166 16.2974 238.092 14.6675 238.829 12.9966H243.768L239.812 19.0904Z" fill="white"/>
<path d="M55.9089 37.3731V32.0354H60.0442V37.3731H59.6446V32.402H56.3085V37.3731H55.9089Z" fill="white"/>
<path d="M61.2906 37.3731V32.0354H63.0466C63.6552 32.0354 64.1122 32.1833 64.4177 32.479C64.7232 32.7747 64.8759 33.1572 64.8759 33.6265C64.8759 34.0908 64.7232 34.4721 64.4177 34.7703C64.1122 35.066 63.6552 35.2138 63.0466 35.2138H61.6902V37.3731H61.2906ZM61.6902 34.8436H63.0466C63.5745 34.8436 63.9435 34.7275 64.1537 34.4953C64.3663 34.2607 64.4727 33.9711 64.4727 33.6265C64.4727 33.2794 64.3663 32.9898 64.1537 32.7576C63.9435 32.523 63.5745 32.4057 63.0466 32.4057H61.6902V34.8436Z" fill="white"/>
<path d="M65.4808 34.7996V34.609C65.4808 33.7633 65.6971 33.1047 66.1297 32.633C66.5647 32.1613 67.1244 31.9255 67.8087 31.9255C68.4906 31.9255 69.0478 32.1613 69.4804 32.633C69.913 33.1047 70.1293 33.7633 70.1293 34.609V34.7996C70.1293 35.6452 69.913 36.3039 69.4804 36.7756C69.0478 37.2472 68.4906 37.4831 67.8087 37.4831C67.1268 37.4831 66.5684 37.2472 66.1334 36.7756C65.6983 36.3039 65.4808 35.6452 65.4808 34.7996ZM65.8877 34.7996C65.8877 35.5523 66.0637 36.1255 66.4156 36.5189C66.77 36.91 67.2344 37.1055 67.8087 37.1055C68.3806 37.1055 68.8425 36.91 69.1945 36.5189C69.5488 36.1255 69.726 35.5523 69.726 34.7996V34.609C69.726 33.8562 69.5488 33.2843 69.1945 32.8933C68.8425 32.4998 68.3806 32.3031 67.8087 32.3031C67.2344 32.3031 66.77 32.4998 66.4156 32.8933C66.0637 33.2843 65.8877 33.8562 65.8877 34.609V34.7996Z" fill="white"/>
<path d="M75.7089 38.4362V37.3731H71.0201V38.4362H70.6609V37.0065H76.0682V38.4362H75.7089ZM71.768 32.0354H75.3093V37.3731H74.9097V32.402H72.1236L71.9806 35.3128C71.9586 35.7625 71.9183 36.1328 71.8596 36.4236C71.801 36.7145 71.7154 36.9699 71.603 37.1898H71.1484C71.3195 36.9552 71.4332 36.6888 71.4894 36.3906C71.5456 36.0925 71.5847 35.7173 71.6067 35.2652L71.768 32.0354Z" fill="white"/>
<path d="M76.2185 37.3731L78.4107 32.0024H78.9423L81.1272 37.3731H80.68L78.9313 32.9923C78.88 32.8701 78.8323 32.7552 78.7883 32.6477C78.7468 32.5401 78.7089 32.4326 78.6747 32.325H78.6307C78.5965 32.4326 78.5586 32.5401 78.5171 32.6477C78.4755 32.7552 78.4291 32.8701 78.3777 32.9923L76.6254 37.3731H76.2185ZM77.025 35.8847L77.1753 35.5145L80.1484 35.5071L80.3024 35.8811L77.025 35.8847Z" fill="white"/>
<path d="M84.3643 37.3731V32.0354H84.7639V37.3731H84.3643ZM87.55 37.3731L85.4934 34.6419L85.9077 34.543L88.0486 37.3731H87.55ZM84.5623 34.4367H85.6437L87.3484 32.0354H87.803L85.805 34.8033H84.5623V34.4367ZM81.0942 37.3731L83.2352 34.543L83.6348 34.6419L81.5782 37.3731H81.0942ZM84.5623 34.4367V34.8033H83.3085L81.3105 32.0354H81.7798L83.4845 34.4367H84.5623Z" fill="white"/>
<path d="M88.0156 37.3731L90.2079 32.0024H90.7394L92.9244 37.3731H92.4771L90.7285 32.9923C90.6771 32.8701 90.6295 32.7552 90.5855 32.6477C90.5439 32.5401 90.5061 32.4326 90.4718 32.325H90.4278C90.3936 32.4326 90.3557 32.5401 90.3142 32.6477C90.2726 32.7552 90.2262 32.8701 90.1749 32.9923L88.4225 37.3731H88.0156ZM88.8221 35.8847L88.9724 35.5145L91.9456 35.5071L92.0995 35.8811L88.8221 35.8847Z" fill="white"/>
<path d="M99.5745 37.3731H99.1749V33.0069C99.1749 32.9336 99.1773 32.8493 99.1822 32.754C99.1871 32.6562 99.1957 32.5682 99.2079 32.49H99.1749C99.148 32.5487 99.1101 32.6183 99.0612 32.699C99.0124 32.7796 98.9622 32.8578 98.9109 32.9336L95.8498 37.3731H95.3843V32.0354H95.7838V36.5006C95.7838 36.5739 95.7814 36.6436 95.7765 36.7096C95.7741 36.7756 95.7704 36.8452 95.7655 36.9185H95.7948C95.8339 36.8428 95.8731 36.7694 95.9122 36.6986C95.9513 36.6252 95.9977 36.5495 96.0515 36.4713L99.1089 32.0354H99.5745V37.3731Z" fill="white"/>
<path d="M102.658 37.3731V32.0354H103.127L105.209 36.4493C105.243 36.5226 105.285 36.6265 105.334 36.7609C105.383 36.8953 105.411 36.9955 105.418 37.0615H105.455C105.467 36.9857 105.496 36.8831 105.543 36.7536C105.589 36.624 105.629 36.5226 105.664 36.4493L107.757 32.0354H108.259V37.3731H107.86V32.9849C107.86 32.9116 107.861 32.8297 107.863 32.7393C107.868 32.6464 107.875 32.5633 107.885 32.49H107.852C107.833 32.5633 107.806 32.6464 107.772 32.7393C107.74 32.8297 107.707 32.9116 107.673 32.9849L105.631 37.3731H105.249L103.2 32.9849C103.163 32.9116 103.128 32.8297 103.094 32.7393C103.06 32.6464 103.034 32.5633 103.017 32.49H102.977C102.986 32.5633 102.995 32.6464 103.002 32.7393C103.012 32.8297 103.017 32.9116 103.017 32.9849V37.3731H102.658Z" fill="white"/>
<path d="M109.304 34.7996V34.609C109.304 33.7633 109.52 33.1047 109.953 32.633C110.388 32.1613 110.948 31.9255 111.632 31.9255C112.314 31.9255 112.871 32.1613 113.304 32.633C113.736 33.1047 113.952 33.7633 113.952 34.609V34.7996C113.952 35.6452 113.736 36.3039 113.304 36.7756C112.871 37.2472 112.314 37.4831 111.632 37.4831C110.95 37.4831 110.392 37.2472 109.957 36.7756C109.522 36.3039 109.304 35.6452 109.304 34.7996ZM109.711 34.7996C109.711 35.5523 109.887 36.1255 110.239 36.5189C110.593 36.91 111.058 37.1055 111.632 37.1055C112.204 37.1055 112.666 36.91 113.018 36.5189C113.372 36.1255 113.549 35.5523 113.549 34.7996V34.609C113.549 33.8562 113.372 33.2843 113.018 32.8933C112.666 32.4998 112.204 32.3031 111.632 32.3031C111.058 32.3031 110.593 32.4998 110.239 32.8933C109.887 33.2843 109.711 33.8562 109.711 34.609V34.7996Z" fill="white"/>
<path d="M114.997 37.3731V32.0354H115.397V34.4367H118.77V32.0354H119.169V37.3731H118.77V34.8033H115.397V37.3731H114.997Z" fill="white"/>
<path d="M119.88 32.4057V32.0354H124.17V32.4057H122.227V37.3731H121.827V32.4057H119.88Z" fill="white"/>
<path d="M124.258 37.3731L126.45 32.0024H126.981L129.166 37.3731H128.719L126.97 32.9923C126.919 32.8701 126.871 32.7552 126.827 32.6477C126.786 32.5401 126.748 32.4326 126.714 32.325H126.67C126.636 32.4326 126.598 32.5401 126.556 32.6477C126.515 32.7552 126.468 32.8701 126.417 32.9923L124.664 37.3731H124.258ZM125.064 35.8847L125.214 35.5145L128.187 35.5071L128.341 35.8811L125.064 35.8847Z" fill="white"/>
<path d="M132.403 37.3731V32.0354H132.803V37.3731H132.403ZM135.589 37.3731L133.532 34.6419L133.947 34.543L136.088 37.3731H135.589ZM132.601 34.4367H133.683L135.387 32.0354H135.842L133.844 34.8033H132.601V34.4367ZM129.133 37.3731L131.274 34.543L131.674 34.6419L129.617 37.3731H129.133ZM132.601 34.4367V34.8033H131.348L129.35 32.0354H129.819L131.524 34.4367H132.601Z" fill="white"/>
<path d="M138.511 37.3731V32.0354H140.271C140.811 32.0354 141.232 32.1454 141.535 32.3654C141.841 32.5829 141.994 32.925 141.994 33.3918C141.994 33.6998 141.915 33.954 141.759 34.1544C141.603 34.3548 141.406 34.4904 141.169 34.5613V34.576C141.462 34.6493 141.7 34.7984 141.884 35.0232C142.067 35.2481 142.159 35.5413 142.159 35.903C142.159 36.3699 142 36.7316 141.682 36.9882C141.364 37.2448 140.938 37.3731 140.403 37.3731H138.511ZM138.91 37.0138H140.403C140.869 37.0138 141.212 36.9124 141.429 36.7096C141.647 36.5067 141.755 36.233 141.755 35.8884C141.755 35.5462 141.647 35.2749 141.429 35.0745C141.212 34.8717 140.869 34.7703 140.403 34.7703H138.91V37.0138ZM138.91 34.4183H140.271C140.74 34.4183 141.077 34.3291 141.282 34.1507C141.488 33.9723 141.59 33.7242 141.59 33.4065C141.59 33.0839 141.488 32.8346 141.282 32.6587C141.077 32.4827 140.74 32.3947 140.271 32.3947H138.91V34.4183Z" fill="white"/>
<path d="M147.342 37.3731H146.943V33.0069C146.943 32.9336 146.945 32.8493 146.95 32.754C146.955 32.6562 146.963 32.5682 146.976 32.49H146.943C146.916 32.5487 146.878 32.6183 146.829 32.699C146.78 32.7796 146.73 32.8578 146.679 32.9336L143.618 37.3731H143.152V32.0354H143.552V36.5006C143.552 36.5739 143.549 36.6436 143.544 36.7096C143.542 36.7756 143.538 36.8452 143.533 36.9185H143.563C143.602 36.8428 143.641 36.7694 143.68 36.6986C143.719 36.6252 143.765 36.5495 143.819 36.4713L146.877 32.0354H147.342V37.3731Z" fill="white"/>
<path d="M148.592 37.3731V32.0354H148.992V34.4367H152.365V32.0354H152.764V37.3731H152.365V34.8033H148.992V37.3731H148.592Z" fill="white"/>
<path d="M153.475 32.4057V32.0354H157.765V32.4057H155.822V37.3731H155.422V32.4057H153.475Z" fill="white"/>
<path d="M158.274 34.7996V34.609C158.274 33.7633 158.491 33.1047 158.923 32.633C159.358 32.1613 159.918 31.9255 160.602 31.9255C161.284 31.9255 161.841 32.1613 162.274 32.633C162.706 33.1047 162.923 33.7633 162.923 34.609V34.7996C162.923 35.6452 162.706 36.3039 162.274 36.7756C161.841 37.2472 161.284 37.4831 160.602 37.4831C159.92 37.4831 159.362 37.2472 158.927 36.7756C158.492 36.3039 158.274 35.6452 158.274 34.7996ZM158.681 34.7996C158.681 35.5523 158.857 36.1255 159.209 36.5189C159.563 36.91 160.028 37.1055 160.602 37.1055C161.174 37.1055 161.636 36.91 161.988 36.5189C162.342 36.1255 162.519 35.5523 162.519 34.7996V34.609C162.519 33.8562 162.342 33.2843 161.988 32.8933C161.636 32.4998 161.174 32.3031 160.602 32.3031C160.028 32.3031 159.563 32.4998 159.209 32.8933C158.857 33.2843 158.681 33.8562 158.681 34.609V34.7996Z" fill="white"/>
<path d="M163.967 37.3731V32.0354H165.727C166.267 32.0354 166.689 32.1454 166.992 32.3654C167.297 32.5829 167.45 32.925 167.45 33.3918C167.45 33.6998 167.372 33.954 167.216 34.1544C167.059 34.3548 166.862 34.4904 166.625 34.5613V34.576C166.919 34.6493 167.157 34.7984 167.34 35.0232C167.524 35.2481 167.615 35.5413 167.615 35.903C167.615 36.3699 167.456 36.7316 167.139 36.9882C166.821 37.2448 166.394 37.3731 165.859 37.3731H163.967ZM164.367 37.0138H165.859C166.326 37.0138 166.668 36.9124 166.886 36.7096C167.103 36.5067 167.212 36.233 167.212 35.8884C167.212 35.5462 167.103 35.2749 166.886 35.0745C166.668 34.8717 166.326 34.7703 165.859 34.7703H164.367V37.0138ZM164.367 34.4183H165.727C166.196 34.4183 166.534 34.3291 166.739 34.1507C166.944 33.9723 167.047 33.7242 167.047 33.4065C167.047 33.0839 166.944 32.8346 166.739 32.6587C166.534 32.4827 166.196 32.3947 165.727 32.3947H164.367V34.4183Z" fill="white"/>
<path d="M168.609 32.0354H169.008V34.158H170.365C170.973 34.158 171.43 34.3083 171.736 34.609C172.041 34.9096 172.194 35.2945 172.194 35.7637C172.194 36.2379 172.041 36.6252 171.736 36.9259C171.43 37.224 170.973 37.3731 170.365 37.3731H168.609V32.0354ZM169.008 34.5246V37.0065H170.365C170.893 37.0065 171.262 36.888 171.472 36.6509C171.684 36.4138 171.791 36.1181 171.791 35.7637C171.791 35.4142 171.684 35.121 171.472 34.8839C171.262 34.6444 170.893 34.5246 170.365 34.5246H169.008ZM173.092 37.3731H173.492V32.0354H173.092V37.3731Z" fill="white"/>
<path d="M174.207 37.3731L176.48 34.5246H176.538L178.47 32.0354H178.925L176.765 34.8106H176.703L174.658 37.3731H174.207ZM174.317 32.0354H174.826L176.758 34.5246H176.78L179.046 37.3731H178.532L176.498 34.8106H176.476L174.317 32.0354Z" fill="white"/>
<path d="M181.385 34.7996V34.609C181.385 33.7633 181.601 33.1047 182.033 32.633C182.469 32.1613 183.014 31.9255 183.669 31.9255C184.314 31.9255 184.806 32.0929 185.146 32.4277C185.488 32.7601 185.685 33.1951 185.736 33.7328L185.74 33.7694H185.333L185.329 33.7328C185.29 33.3393 185.141 33.0033 184.882 32.7246C184.623 32.4436 184.218 32.3031 183.669 32.3031C183.119 32.3031 182.668 32.5022 182.316 32.9006C181.966 33.2965 181.792 33.866 181.792 34.609V34.7996C181.792 35.5426 181.966 36.1132 182.316 36.5116C182.668 36.9075 183.119 37.1055 183.669 37.1055C184.218 37.1055 184.623 36.9662 184.882 36.6876C185.141 36.4065 185.29 36.0692 185.329 35.6758L185.333 35.6391H185.74L185.736 35.6758C185.685 36.2134 185.488 36.6497 185.146 36.9845C184.806 37.3169 184.314 37.4831 183.669 37.4831C183.014 37.4831 182.469 37.2472 182.033 36.7756C181.601 36.3039 181.385 35.6452 181.385 34.7996Z" fill="white"/>
<path d="M186.55 37.3731V32.0354H188.31C188.85 32.0354 189.271 32.1454 189.574 32.3654C189.88 32.5829 190.033 32.925 190.033 33.3918C190.033 33.6998 189.954 33.954 189.798 34.1544C189.642 34.3548 189.445 34.4904 189.208 34.5613V34.576C189.501 34.6493 189.739 34.7984 189.923 35.0232C190.106 35.2481 190.198 35.5413 190.198 35.903C190.198 36.3699 190.039 36.7316 189.721 36.9882C189.403 37.2448 188.977 37.3731 188.442 37.3731H186.55ZM186.95 37.0138H188.442C188.908 37.0138 189.251 36.9124 189.468 36.7096C189.686 36.5067 189.794 36.233 189.794 35.8884C189.794 35.5462 189.686 35.2749 189.468 35.0745C189.251 34.8717 188.908 34.7703 188.442 34.7703H186.95V37.0138ZM186.95 34.4183H188.31C188.779 34.4183 189.116 34.3291 189.321 34.1507C189.527 33.9723 189.629 33.7242 189.629 33.4065C189.629 33.0839 189.527 32.8346 189.321 32.6587C189.116 32.4827 188.779 32.3947 188.31 32.3947H186.95V34.4183Z" fill="white"/>
<path d="M190.568 37.3731L192.76 32.0024H193.292L195.477 37.3731H195.029L193.281 32.9923C193.229 32.8701 193.182 32.7552 193.138 32.6477C193.096 32.5401 193.058 32.4326 193.024 32.325H192.98C192.946 32.4326 192.908 32.5401 192.866 32.6477C192.825 32.7552 192.778 32.8701 192.727 32.9923L190.975 37.3731H190.568ZM191.374 35.8847L191.525 35.5145L194.498 35.5071L194.652 35.8811L191.374 35.8847Z" fill="white"/>
<path d="M200.294 37.3731H199.894V33.0069C199.894 32.9336 199.897 32.8493 199.901 32.754C199.906 32.6562 199.915 32.5682 199.927 32.49H199.894C199.867 32.5487 199.829 32.6183 199.781 32.699C199.732 32.7796 199.682 32.8578 199.63 32.9336L196.569 37.3731H196.104V32.0354H196.503V36.5006C196.503 36.5739 196.501 36.6436 196.496 36.7096C196.493 36.7756 196.49 36.8452 196.485 36.9185H196.514C196.553 36.8428 196.592 36.7694 196.631 36.6986C196.671 36.6252 196.717 36.5495 196.771 36.4713L199.828 32.0354H200.294V37.3731ZM198.2 30.9686C198.489 30.9686 198.73 30.9014 198.923 30.767C199.118 30.6301 199.27 30.4053 199.377 30.0925L199.715 30.2464C199.597 30.5642 199.408 30.8171 199.146 31.0053C198.887 31.1935 198.572 31.2876 198.2 31.2876C197.829 31.2876 197.511 31.191 197.247 30.998C196.986 30.8024 196.799 30.5519 196.686 30.2464L197.024 30.0925C197.126 30.398 197.275 30.6204 197.471 30.7597C197.669 30.899 197.912 30.9686 198.2 30.9686Z" fill="white"/>
</svg>
