<svg width="56" height="56" viewBox="0 0 56 56" fill="none" xmlns="http://www.w3.org/2000/svg">
<rect x="0.5" y="0.5" width="55" height="55" rx="4.5" fill="white" stroke="#D9D9D9"/>
<path d="M4 4H52V52H4V4Z" fill="#689775"/>
<path d="M27.7331 7.20797C27.114 7.57931 27.0022 7.93377 27.0022 9.53729V10.7188L25.8069 10.9973C25.1448 11.1492 24.3021 11.3687 23.9323 11.4868C21.9116 12.1282 20.381 13.2844 20.381 14.1706C20.381 15.2087 21.7826 16.002 24.5773 16.5421L24.8524 16.6012V16.1201C24.8524 15.8501 24.9126 15.5125 24.99 15.3521C25.1448 15.0399 25.7123 14.5082 26.1939 14.2297L26.4948 14.0524L26.4776 15.5125C26.4604 16.3058 26.4432 17.327 26.4174 17.7743L26.383 18.5929L25.6005 18.863C24.4569 19.2597 23.6572 19.631 22.8403 20.1542C21.2065 21.2007 20.4583 22.3738 20.8195 23.3106C20.9485 23.6567 21.4816 24.163 21.9632 24.4078C22.4533 24.6525 23.726 24.9901 24.4999 25.0745L25.0244 25.1336L24.8954 24.8298C24.732 24.4415 24.732 23.817 24.8868 23.5216C25.076 23.1756 26.1423 22.2388 26.3487 22.2388C26.3745 22.2388 26.4002 23.26 26.4002 24.5091V26.7793L25.8241 27.0156C23.0982 28.1549 21.4558 29.269 20.9055 30.3577C20.5013 31.1425 20.5787 31.6574 21.1893 32.1806C21.817 32.7123 23.0982 33.1765 24.4483 33.3368L24.947 33.3959L24.775 33.1174C24.4311 32.5688 24.6203 31.6742 25.1706 31.2354C25.4544 31.0075 26.2369 30.594 26.3916 30.594C26.4776 30.594 26.4948 30.6615 26.4518 30.8556C26.426 30.9991 26.4002 32.0034 26.4002 33.0752V35.0247L25.7209 35.3032C23.9581 36.029 22.2727 37.43 22.2727 38.1642C22.2727 38.7297 23.5626 38.7635 25.2996 38.2402C25.8585 38.0714 26.3315 37.9364 26.3487 37.9364C26.3659 37.9364 26.4002 39.0504 26.426 40.4007C26.469 42.9157 26.5894 44.0213 27.0538 46.3337C27.3461 47.8191 28.1286 50.41 28.722 51.9038C28.8166 52.1401 28.851 52.0473 29.3325 50.3847C30.8631 45.0762 31.0437 43.9791 31.1039 39.4302L31.1469 36.2316L31.7144 35.8434C33.0989 34.8728 33.7954 34.2989 33.847 34.0795C33.9416 33.7335 33.6406 33.5478 32.9871 33.5478C32.4797 33.5478 31.637 33.6575 31.2931 33.7588C31.1383 33.8094 31.1297 33.7335 31.1297 31.4126V29.0073L32.7033 28.4925C35.5496 27.5557 36.0999 27.1759 35.7731 26.3404C35.67 26.0535 35.1282 25.7159 34.5091 25.5471C34.1393 25.4458 33.6492 25.4036 32.5657 25.4036H31.1297V20.8969L31.3275 20.8463C32.0326 20.6522 34.4833 19.8251 34.8187 19.6816C35.8419 19.209 36.1601 18.8461 35.9279 18.3904C35.5926 17.7068 33.933 17.2679 32.0154 17.3692L31.1297 17.4114V13.2507L33.1333 12.795C34.2253 12.5418 35.2744 12.2717 35.4464 12.1873C36.0225 11.9004 35.9451 11.4784 35.2572 11.1914C34.2941 10.7863 32.7893 10.5078 31.5682 10.5078H30.7427V9.25878C30.7341 7.89157 30.6825 7.68059 30.1838 7.26705C29.9258 7.05606 29.8656 7.04762 28.9541 7.04762C28.163 7.04762 27.9481 7.07294 27.7331 7.20797Z" fill="white"/>
</svg>
