<svg width="33" height="32" viewBox="0 0 33 32" fill="none" xmlns="http://www.w3.org/2000/svg">
<path d="M31.5504 32H1.94986C1.34305 32 0.839844 31.4968 0.839844 30.89C0.839844 30.2832 1.34305 29.78 1.94986 29.78H31.5504C32.1572 29.78 32.6604 30.2832 32.6604 30.89C32.6604 31.4968 32.1572 32 31.5504 32Z" fill="black"/>
<path d="M4.46613 30.89H2.24609L2.32009 13.0852C2.32009 11.8272 2.89731 10.658 3.88892 9.8884L14.2491 1.82224C15.7143 0.682624 17.7716 0.682624 19.2516 1.82224L29.6118 9.87358C30.5886 10.6432 31.1806 11.842 31.1806 13.0852V30.89H28.9605V13.1C28.9605 12.5376 28.6941 11.99 28.2501 11.6348L17.89 3.58348C17.2239 3.06547 16.2915 3.06547 15.6107 3.58348L5.25054 11.6496C4.80654 11.99 4.54013 12.5376 4.54013 13.1L4.46613 30.89Z" fill="black"/>
<path d="M20.4506 32H13.0504C12.4436 32 11.9404 31.4968 11.9404 30.89V25.7099C11.9404 23.8746 13.4353 22.3798 15.2705 22.3798H18.2305C20.0658 22.3798 21.5606 23.8746 21.5606 25.7099V30.89C21.5606 31.4968 21.0574 32 20.4506 32ZM14.1605 29.7799H19.3406V25.7099C19.3406 25.1031 18.8373 24.5999 18.2305 24.5999H15.2705C14.6637 24.5999 14.1605 25.1031 14.1605 25.7099V29.7799Z" fill="black"/>
<path d="M13.0501 19.7898H10.09C8.66922 19.7898 7.5 18.6206 7.5 17.1997V14.9797C7.5 13.5589 8.66922 12.3896 10.09 12.3896H13.0501C14.4709 12.3896 15.6401 13.5589 15.6401 14.9797V17.1997C15.6401 18.6206 14.4709 19.7898 13.0501 19.7898ZM10.09 14.6097C9.88284 14.6097 9.72004 14.7725 9.72004 14.9797V17.1997C9.72004 17.4069 9.88284 17.5697 10.09 17.5697H13.0501C13.2573 17.5697 13.4201 17.4069 13.4201 17.1997V14.9797C13.4201 14.7725 13.2573 14.6097 13.0501 14.6097H10.09Z" fill="black"/>
<path d="M23.4104 19.7898H20.4504C19.0296 19.7898 17.8604 18.6206 17.8604 17.1997V14.9797C17.8604 13.5589 19.0296 12.3896 20.4504 12.3896H23.4104C24.8313 12.3896 26.0005 13.5589 26.0005 14.9797V17.1997C26.0005 18.6206 24.8313 19.7898 23.4104 19.7898ZM20.4504 14.6097C20.2432 14.6097 20.0804 14.7725 20.0804 14.9797V17.1997C20.0804 17.4069 20.2432 17.5697 20.4504 17.5697H23.4104C23.6176 17.5697 23.7805 17.4069 23.7805 17.1997V14.9797C23.7805 14.7725 23.6176 14.6097 23.4104 14.6097H20.4504Z" fill="black"/>
<path d="M27.1107 9.79964C26.5039 9.79964 26.0007 9.31125 26.0007 8.70444L25.9711 5.35956H20.569C19.9622 5.35956 19.459 4.85636 19.459 4.24955C19.459 3.64273 19.9622 3.13953 20.569 3.13953H27.0811C27.6879 3.13953 28.1911 3.62792 28.1911 4.23473L28.2355 8.67481C28.2207 9.29642 27.7323 9.79964 27.1107 9.79964C27.1255 9.79964 27.1107 9.79964 27.1107 9.79964Z" fill="black"/>
</svg>
