<svg width="68" height="68" viewBox="0 0 68 68" fill="none" xmlns="http://www.w3.org/2000/svg">
<path d="M30.4625 47.771V53.5227C30.4625 58.3961 25.9292 62.3344 20.3475 62.3344C14.7658 62.3344 10.2041 58.3961 10.2041 53.5227V47.771C10.2041 52.6443 14.7375 56.101 20.3475 56.101C25.9292 56.101 30.4625 52.616 30.4625 47.771Z" stroke="#171717" stroke-width="3" stroke-linecap="round" stroke-linejoin="round"/>
<path d="M30.4585 39.9781C30.4585 41.3948 30.0618 42.698 29.3818 43.8314C27.7101 46.5797 24.2818 48.3081 20.3151 48.3081C16.3484 48.3081 12.92 46.5514 11.2484 43.8314C10.5684 42.698 10.1719 41.3948 10.1719 39.9781C10.1719 37.5414 11.3051 35.3597 13.1185 33.7731C14.9601 32.1581 17.4817 31.1948 20.2867 31.1948C23.0917 31.1948 25.6135 32.1864 27.4551 33.7731C29.3251 35.3314 30.4585 37.5414 30.4585 39.9781Z" stroke="#171717" stroke-width="1.5" stroke-linecap="round" stroke-linejoin="round"/>
<path d="M30.4625 39.9781V47.7698C30.4625 52.6431 25.9292 56.0998 20.3475 56.0998C14.7658 56.0998 10.2041 52.6148 10.2041 47.7698V39.9781C10.2041 35.1048 14.7375 31.1665 20.3475 31.1665C23.1525 31.1665 25.6742 32.1581 27.5159 33.7448C29.3292 35.3314 30.4625 37.5415 30.4625 39.9781Z" stroke="#171717" stroke-width="3" stroke-linecap="round" stroke-linejoin="round"/>
<path d="M62.3333 31.0818V36.9186C62.3333 38.4769 61.0866 39.7518 59.5 39.8085H53.9466C50.8866 39.8085 48.0816 37.5702 47.8266 34.5102C47.6566 32.7252 48.3366 31.0535 49.5266 29.8918C50.5749 28.8152 52.0199 28.1919 53.6066 28.1919H59.5C61.0866 28.2486 62.3333 29.5234 62.3333 31.0818Z" stroke="#171717" stroke-width="3" stroke-linecap="round" stroke-linejoin="round"/>
<path d="M5.66699 29.7498V24.0832C5.66699 16.3765 10.3137 10.9932 17.5387 10.0865C18.2753 9.97316 19.0403 9.9165 19.8337 9.9165H45.3337C46.0703 9.9165 46.7787 9.9448 47.4587 10.0581C54.7687 10.9081 59.5003 16.3198 59.5003 24.0832V28.1915H53.6069C52.0203 28.1915 50.5753 28.8148 49.5269 29.8915C48.3369 31.0531 47.657 32.7248 47.827 34.5098C48.082 37.5698 50.8869 39.8081 53.9469 39.8081H59.5003V43.9165C59.5003 52.4165 53.8337 58.0832 45.3337 58.0832H38.2503" stroke="#171717" stroke-width="3" stroke-linecap="round" stroke-linejoin="round"/>
</svg>
