<svg width="68" height="68" viewBox="0 0 68 68" fill="none" xmlns="http://www.w3.org/2000/svg">
<path d="M51.113 38.3918C49.923 39.5535 49.243 41.2251 49.413 43.0101C49.668 46.0701 52.473 48.3085 55.533 48.3085H60.9163V51.6801C60.9163 57.5451 56.128 62.3335 50.263 62.3335H17.7363C11.8713 62.3335 7.08301 57.5451 7.08301 51.6801V32.6119C7.08301 26.7469 11.8713 21.9585 17.7363 21.9585H50.263C56.128 21.9585 60.9163 26.7469 60.9163 32.6119V36.6919H55.193C53.6063 36.6919 52.1613 37.3151 51.113 38.3918Z" stroke="#171717" stroke-width="3" stroke-linecap="round" stroke-linejoin="round"/>
<path d="M7.08301 35.1617V22.2135C7.08301 18.8418 9.15134 15.8384 12.2963 14.6484L34.793 6.14838C38.3063 4.81672 42.0747 7.42347 42.0747 11.1918V21.9584" stroke="#171717" stroke-width="3" stroke-linecap="round" stroke-linejoin="round"/>
<path d="M63.9163 39.5823V45.4191C63.9163 46.9774 62.6696 48.2523 61.083 48.309H55.5296C52.4696 48.309 49.6646 46.0707 49.4096 43.0107C49.2396 41.2257 49.9196 39.554 51.1096 38.3923C52.158 37.3156 53.603 36.6924 55.1896 36.6924H61.083C62.6696 36.749 63.9163 38.0239 63.9163 39.5823Z" stroke="#171717" stroke-width="3" stroke-linecap="round" stroke-linejoin="round"/>
<path d="M19.833 34H39.6663" stroke="#171717" stroke-width="3" stroke-linecap="round" stroke-linejoin="round"/>
</svg>
