<svg width="68" height="68" viewBox="0 0 68 68" fill="none" xmlns="http://www.w3.org/2000/svg">
<path d="M34 15.7534H62.3333" stroke="#171717" stroke-width="3" stroke-miterlimit="10" stroke-linecap="round" stroke-linejoin="round"/>
<path d="M40.29 5.6665H56.0433C61.0867 5.6665 62.3333 6.91317 62.3333 11.8998V23.5448C62.3333 28.5315 61.0867 29.7782 56.0433 29.7782H40.29C35.2467 29.7782 34 28.5315 34 23.5448V11.8998C34 6.91317 35.2467 5.6665 40.29 5.6665Z" stroke="#171717" stroke-width="3" stroke-linecap="round" stroke-linejoin="round"/>
<path d="M5.66699 48.3369H34.0003" stroke="#171717" stroke-width="3" stroke-miterlimit="10" stroke-linecap="round" stroke-linejoin="round"/>
<path d="M11.957 38.25H27.7103C32.7537 38.25 34.0003 39.4967 34.0003 44.4833V56.1283C34.0003 61.115 32.7537 62.3617 27.7103 62.3617H11.957C6.91366 62.3617 5.66699 61.115 5.66699 56.1283V44.4833C5.66699 39.4967 6.91366 38.25 11.957 38.25Z" stroke="#171717" stroke-width="3" stroke-linecap="round" stroke-linejoin="round"/>
<path d="M62.3333 42.5C62.3333 53.465 53.465 62.3333 42.5 62.3333L45.475 57.375" stroke="#171717" stroke-width="3" stroke-linecap="round" stroke-linejoin="round"/>
<path d="M5.66699 25.4998C5.66699 14.5348 14.5353 5.6665 25.5003 5.6665L22.5254 10.6248" stroke="#171717" stroke-width="3" stroke-linecap="round" stroke-linejoin="round"/>
</svg>
