<svg width="68" height="68" viewBox="0 0 68 68" fill="none" xmlns="http://www.w3.org/2000/svg">
<path d="M62.333 16.9998V23.8565C62.333 28.3332 59.4997 31.1665 55.023 31.1665H45.333V11.3615C45.333 8.2165 47.9113 5.6665 51.0563 5.6665C54.1447 5.69484 56.978 6.9415 59.018 8.9815C61.058 11.0498 62.333 13.8832 62.333 16.9998Z" stroke="#171717" stroke-width="3" stroke-miterlimit="10" stroke-linecap="round" stroke-linejoin="round"/>
<path d="M5.66699 19.8332V59.4998C5.66699 61.8515 8.33033 63.1832 10.2003 61.7665L15.0453 58.1398C16.1787 57.2898 17.7653 57.4032 18.7853 58.4232L23.4887 63.1548C24.5937 64.2598 26.407 64.2598 27.512 63.1548L32.272 58.3948C33.2637 57.4032 34.8503 57.2898 35.9553 58.1398L40.8003 61.7665C42.6703 63.1548 45.3337 61.8232 45.3337 59.4998V11.3332C45.3337 8.2165 47.8837 5.6665 51.0003 5.6665H19.8337H17.0003C8.50033 5.6665 5.66699 10.7382 5.66699 16.9998V19.8332Z" stroke="#171717" stroke-width="3" stroke-miterlimit="10" stroke-linecap="round" stroke-linejoin="round"/>
<path d="M25.5 36.8618H34" stroke="#171717" stroke-width="3" stroke-linecap="round" stroke-linejoin="round"/>
<path d="M25.5 25.5283H34" stroke="#171717" stroke-width="3" stroke-linecap="round" stroke-linejoin="round"/>
<path d="M16.9873 36.8335H17.0128" stroke="#171717" stroke-width="3" stroke-linecap="round" stroke-linejoin="round"/>
<path d="M16.9873 25.5H17.0128" stroke="#171717" stroke-width="3" stroke-linecap="round" stroke-linejoin="round"/>
</svg>
