<svg width="68" height="68" viewBox="0 0 68 68" fill="none" xmlns="http://www.w3.org/2000/svg">
<path d="M25.5003 5.6665H42.5003C56.667 5.6665 62.3337 11.3332 62.3337 25.4998V42.4998C62.3337 56.6665 56.667 62.3332 42.5003 62.3332H25.5003C11.3337 62.3332 5.66699 56.6665 5.66699 42.4998V25.4998C5.66699 11.3332 11.3337 5.6665 25.5003 5.6665Z" stroke="#171717" stroke-width="3" stroke-linecap="round" stroke-linejoin="round"/>
<path d="M24.2822 43.2648L42.8122 24.7349" stroke="#171717" stroke-width="3" stroke-linecap="round" stroke-linejoin="round"/>
<path d="M25.443 29.3816C27.3678 29.3816 28.928 27.8214 28.928 25.8967C28.928 23.9719 27.3678 22.4116 25.443 22.4116C23.5183 22.4116 21.958 23.9719 21.958 25.8967C21.958 27.8214 23.5183 29.3816 25.443 29.3816Z" stroke="#171717" stroke-width="3" stroke-linecap="round" stroke-linejoin="round"/>
<path d="M43.9732 45.5881C45.8979 45.5881 47.4583 44.0278 47.4583 42.1031C47.4583 40.1784 45.8979 38.6182 43.9732 38.6182C42.0485 38.6182 40.4883 40.1784 40.4883 42.1031C40.4883 44.0278 42.0485 45.5881 43.9732 45.5881Z" stroke="#171717" stroke-width="3" stroke-linecap="round" stroke-linejoin="round"/>
</svg>
